<svg width="506" height="522" viewBox="0 0 506 522" fill="none" xmlns="http://www.w3.org/2000/svg">
<path d="M55.9435 175.124C-21.5196 258.241 -17.1182 388.7 66.0012 466.165C149.12 543.63 280.06 539.306 357.523 456.189C425.966 382.75 429.523 271.51 373.358 194.333L435.021 128.169L438.819 162.88L505.997 154.644L488.696 10.6709L341.654 0.97766L337.579 69.0349L376.993 71.9426L313.823 139.723C231.997 90.0844 123.578 102.553 55.9435 175.124ZM297.935 400.655C250.841 451.187 171.414 453.983 120.881 406.887C70.3468 359.791 67.5501 280.364 114.645 229.832C161.74 179.299 241.167 176.502 291.701 223.599C342.235 270.695 345.031 350.122 297.935 400.655Z" fill="black"/>
</svg>
