<svg width="511" height="686" viewBox="0 0 511 686" fill="none" xmlns="http://www.w3.org/2000/svg">
<path d="M249.528 515.532V569.177H281.841V637.033H249.528V685.502H168.747V637.033H133.203V569.177H168.747V516.107C75.0411 497.882 2.07615 414.115 2.07615 313.775C2.07615 200.158 94.7808 107.722 208.398 107.722C322.018 107.722 414.051 200.155 414.051 313.775C414.051 413.03 343.235 496.105 249.528 515.532ZM208.669 188.506C139.595 188.506 83.3971 244.704 83.3971 313.779C83.3971 382.856 139.595 439.054 208.669 439.054C277.747 439.054 333.945 382.856 333.945 313.779C333.941 244.701 277.747 188.506 208.669 188.506Z" fill="black"/>
<path d="M60.4187 166.084C-19.5811 246.762 -19.2216 377.295 61.4593 457.297C142.14 537.299 273.15 537.031 353.15 456.352C423.834 385.068 430.835 273.992 377.086 195.112L440.768 130.89L443.49 165.702L510.89 159.55L498.056 15.11L351.385 0.868164L345.204 68.7665L384.509 72.8934L319.271 138.685C239.021 86.5366 130.268 95.6418 60.4187 166.084ZM295.311 399C246.674 448.049 167.199 448.385 118.148 399.747C69.0968 351.108 68.7609 271.633 117.398 222.583C166.036 173.533 245.511 173.197 294.562 221.836C343.613 270.474 343.949 349.949 295.311 399Z" fill="black"/>
</svg>
