<svg width="413" height="579" viewBox="0 0 413 579" fill="none" xmlns="http://www.w3.org/2000/svg">
<path d="M248.425 408.532V462.177H280.738V530.033H248.425V578.502H167.644V530.033H132.1V462.177H167.644V409.107C73.9376 390.882 0.972656 307.115 0.972656 206.775C0.972656 93.158 93.6773 0.722046 207.295 0.722046C320.915 0.722046 412.948 93.155 412.948 206.775C412.948 306.03 342.132 389.105 248.425 408.532ZM207.566 81.506C138.492 81.506 82.2936 137.704 82.2936 206.779C82.2936 275.856 138.492 332.054 207.566 332.054C276.644 332.054 332.842 275.856 332.842 206.779C332.838 137.701 276.644 81.506 207.566 81.506Z" fill="black"/>
</svg>
