<svg width="4673" height="3889" viewBox="0 0 4673 3889" fill="none" xmlns="http://www.w3.org/2000/svg">
<path fill-rule="evenodd" clip-rule="evenodd" d="M2457.98 3842.32C2425.78 3841.74 2393.58 3841.44 2361.38 3841.44C2353.47 3834.71 2344.98 3827.68 2335.91 3820.37C2335.32 3819.78 2334.45 3819.2 2333.86 3818.61C2331.81 3816.27 2310.44 3803.39 2306.34 3800.75C2292.59 3792.56 2279.12 3784.65 2265.36 3777.34C2264.78 3776.75 2263.9 3776.46 2263.31 3776.16C2236.97 3761.82 2210.92 3748.65 2184.28 3736.65C2158.81 3724.94 2133.34 3714.4 2107.29 3704.15C2105.53 3714.98 2102.9 3726.69 2099.09 3738.7C2095 3752.45 2089.43 3766.8 2082.41 3781.43C2071.58 3803.39 2056.94 3825.93 2037.04 3847.3C1859.35 3854.62 1683.42 3868.37 1511 3888.28C1551.99 3872.76 1595.02 3843.49 1638.34 3810.12C1658.25 3794.9 1678.44 3778.51 1698.35 3762.41C1748.11 3722.01 1797.58 3681.61 1843.54 3655.27C1860.23 3645.9 1877.5 3638.58 1895.06 3633.31C1825.69 3612.82 1758.65 3589.99 1690.45 3564.52C1668.2 3555.74 1646.24 3547.25 1624.88 3538.47C1606.14 3592.92 1561.94 3665.22 1458.31 3705.91C1276.82 3777.63 1093.57 3711.47 1016.59 3634.19C1127.24 3625.12 1270.97 3498.66 1386.89 3451.53C1395.67 3448.02 1404.45 3445.09 1413.53 3442.75C1334.49 3402.94 1258.67 3359.61 1181.39 3310.14C1153.58 3356.1 1100.01 3411.13 1001.07 3429.87C820.165 3464.12 662.093 3370.74 604.425 3285.55C708.636 3296.68 864.074 3205.05 979.409 3181.93C984.971 3180.76 990.533 3179.88 996.094 3179.29C967.993 3157.34 941.062 3135.09 914.716 3111.97C901.544 3100.55 888.664 3089.13 875.784 3077.42C857.049 3060.15 838.314 3042.3 819.287 3023.86C813.433 3018.29 807.871 3012.44 802.016 3006.88C792.064 3016.54 780.647 3026.49 766.889 3035.27C731.176 3058.69 681.998 3077.13 615.842 3074.79C610.28 3074.79 604.718 3074.2 599.449 3073.91C435.229 3060.74 316.675 2946.87 283.011 2859.93C376.098 2891.84 537.684 2840.32 648.335 2843.24C652.14 2843.24 656.238 2843.54 660.044 2843.83C605.596 2775.04 558.467 2705.95 517.485 2634.24C477.382 2656.78 418.251 2673.75 340.678 2652.97C184.362 2611.11 95.0799 2476.75 81.9072 2387.17C160.065 2435.77 318.138 2422.59 418.544 2448.35C421.471 2449.23 424.398 2450.11 427.325 2450.7C396.589 2377.51 369.951 2299.65 346.24 2215.34C305.551 2227.05 249.347 2229.98 184.362 2196.32C50.5854 2126.94 -3.86189 1987.02 1.99266 1903C63.4654 1962.72 209.829 1982.33 295.891 2025.66C298.525 2027.12 301.16 2028.29 303.795 2029.75C289.158 1949.84 278.913 1869.34 272.473 1788.55C233.833 1792.94 182.605 1786.79 128.744 1746.98C16.6291 1663.55 -12.351 1527.43 5.50535 1451.62C52.9272 1515.43 183.776 1555.24 256.08 1607.64C259.3 1609.98 262.52 1612.32 265.447 1614.96C265.447 1533.29 269.545 1451.91 278.034 1370.53C242.322 1369.07 196.656 1356.19 153.625 1312.28C63.4654 1220.66 56.44 1092.44 83.3709 1025.99C117.327 1090.98 230.905 1145.42 289.451 1203.38C293.256 1207.19 297.062 1211.58 300.575 1215.97C315.796 1132.25 334.824 1054.39 359.998 972.715C327.213 966.275 286.231 947.834 253.153 899.241C186.996 802.056 201.34 685.55 236.467 630.219C256.373 694.039 349.753 761.952 393.076 823.717C397.467 829.865 401.273 836.597 404.2 843.33C412.982 820.79 422.349 797.957 424.983 791.517C450.158 730.63 478.553 670.328 510.46 611.777C482.358 600.653 448.695 577.82 427.033 529.228C383.124 432.042 414.445 330.173 454.549 285.971C462.453 346.273 535.342 421.504 564.029 483.27C567.834 491.173 570.469 499.37 572.226 507.566C600.035 464.828 629.6 423.553 661.215 384.328C684.047 356.226 708.929 327.539 735.86 300.901C712.442 285.386 684.34 256.113 677.022 202.837C664.142 107.701 716.833 28.0786 762.791 0.269531C754.302 54.1313 797.918 137.559 806.7 198.153C808.749 213.082 807.871 227.719 804.944 241.184C815.482 233.866 826.02 226.548 836.558 220.108C842.413 216.595 869.344 201.081 874.905 206.935C878.125 213.961 857.342 238.55 852.658 244.404C841.827 258.162 830.996 271.335 820.165 284.8C839.193 276.604 862.025 270.164 886.029 272.506C947.209 277.775 1032.98 316.415 1086.25 304.706C1061.37 352.128 984.678 409.795 889.249 402.477C825.142 397.501 793.527 360.617 779.476 336.906C760.156 361.788 741.129 387.255 723.273 413.601C693.414 457.217 665.313 502.297 639.553 548.841C649.505 543.864 660.336 539.766 672.045 537.424C739.08 523.959 842.705 538.01 895.689 508.444C883.98 566.99 820.751 652.472 716.54 675.012C655.653 688.184 613.5 667.694 588.618 648.081C553.784 721.263 523.925 796.494 498.165 873.188C505.191 868.797 512.802 864.992 520.705 861.772C590.667 834.256 706.002 829.572 758.107 787.419C756.644 852.99 704.245 958.079 595.058 1002.28C537.976 1025.41 492.018 1016.33 460.989 1002.28C441.962 1078.98 427.911 1152.74 416.787 1232.36C422.056 1227.68 427.911 1223.58 434.351 1219.78C504.313 1176.75 627.551 1149.23 675.265 1093.9C686.389 1164.74 650.384 1287.98 541.782 1356.77C487.042 1391.32 437.278 1391.9 401.565 1384C396.589 1461.28 396.004 1538.56 399.224 1615.54C403.907 1610.57 408.884 1605.59 414.153 1600.91C482.065 1542.95 609.402 1492.89 651.555 1425.56C675.558 1499.62 657.409 1637.79 552.32 1729.71C501.971 1773.62 451.622 1783.86 412.689 1782.69C421.471 1858.22 434.351 1933.45 450.451 2008.09C454.256 2002.24 458.354 1996.68 463.038 1991.11C525.096 1917.64 652.433 1842.12 685.511 1763.08C723.858 1838.02 728.542 1988.19 632.527 2104.4C588.325 2158.26 538.269 2178.17 497.287 2184.31C521.291 2259.54 547.636 2328.34 577.202 2393.32C579.836 2386.59 582.764 2379.86 586.276 2373.42C634.576 2282.08 750.496 2173.78 766.889 2083.03C824.264 2152.7 863.782 2309.31 789.722 2453.33C756.644 2518.02 710.393 2550.52 669.704 2566.91C708.051 2628.67 751.374 2688.39 800.553 2748.4C801.431 2740.5 803.187 2732.88 805.236 2724.98C833.924 2618.14 928.767 2477.63 924.376 2379.27C1000.78 2438.4 1079.23 2591.79 1036.78 2759.23C1018.34 2832.41 979.702 2876.91 941.94 2903.84C970.042 2931.06 997.851 2957.11 1026.25 2982C1046.74 3000.14 1067.81 3018 1089.18 3035.56C1098.26 3042.88 1107.33 3050.49 1116.7 3057.81C1115.53 3049.03 1114.94 3040.25 1114.65 3031.17C1114.65 3028.25 1114.65 3025.32 1114.65 3022.1C1115.23 3003.95 1117.28 2984.92 1120.21 2965.02C1136.6 2854.66 1179.93 2720.59 1156.22 2635.11C1236.13 2672 1334.49 2781.18 1357.61 2927.55C1361.13 2948.04 1362.88 2969.41 1362.88 2991.66C1362.88 2995.46 1362.88 2999.27 1362.88 3002.78C1362.88 3013.61 1362 3024.15 1360.54 3034.1C1352.34 3102.89 1322.78 3150.9 1292.04 3183.1C1364.64 3230.52 1436.65 3272.97 1511.59 3312.78C1504.56 3295.8 1499 3277.36 1496.08 3258.04C1485.54 3188.95 1491.68 3099.67 1490.51 3017.12C1490.51 3002.78 1489.93 2988.73 1489.34 2974.97C1488.17 2952.43 1486.12 2931.06 1482.61 2911.16C1478.51 2887.15 1472.07 2865.2 1463 2846.76C1496.66 2855.24 1535.01 2873.39 1572.48 2900.62C1594.72 2916.72 1616.68 2936.04 1637.46 2958.28C1648.59 2970.29 1659.42 2983.17 1669.66 2997.22C1708.3 3049.62 1738.75 3114.02 1751.33 3188.95C1768.02 3289.65 1736.4 3361.08 1702.45 3406.16C1717.08 3412.89 1731.72 3419.33 1746.65 3426.06C1821.59 3458.56 1896.53 3488.41 1972.64 3517.69C1955.66 3493.98 1941.02 3467.04 1932.24 3436.89C1895.36 3310.14 1905.89 3107.87 1840.91 3010.39C1955.36 3023.56 2130.42 3131.87 2190.13 3329.46C2227.31 3452.7 2187.2 3541.4 2151.49 3590.87C2215.89 3621.6 2277.36 3657.9 2336.2 3704.74C2338.54 3706.79 2340.89 3708.54 2343.23 3710.59C2352.6 3718.5 2361.08 3726.11 2369.28 3734.3C2376.01 3740.74 2382.75 3747.48 2389.19 3754.5C2396.21 3761.53 2402.65 3768.26 2409.09 3775.29C2409.38 3775.87 2409.97 3776.16 2410.26 3776.75C2429 3797.53 2444.51 3818.02 2458.27 3841.74L2457.98 3842.32Z" fill="black"/>
<path fill-rule="evenodd" clip-rule="evenodd" d="M4326.75 2215.63C4302.74 2300.23 4276.4 2377.8 4245.66 2450.99C4248.59 2450.11 4251.52 2449.23 4254.44 2448.64C4354.56 2422.88 4512.92 2436.35 4591.08 2387.46C4577.91 2476.75 4488.63 2611.11 4332.31 2653.26C4254.74 2674.04 4195.61 2657.07 4155.5 2634.53C4114.23 2706.24 4067.1 2775.33 4012.94 2844.12C4016.75 2843.83 4020.56 2843.53 4024.65 2843.53C4135.01 2840.61 4296.6 2892.13 4389.68 2860.22C4355.73 2947.16 4237.47 3061.32 4073.25 3074.2C4067.98 3074.5 4062.42 3074.79 4056.85 3075.08C3990.99 3077.42 3941.81 3059.27 3906.1 3035.56C3892.34 3026.49 3880.63 3016.83 3870.97 3007.17C3865.12 3013.02 3859.26 3018.58 3853.7 3024.15C3834.67 3042.59 3816.23 3060.44 3797.2 3077.72C3784.32 3089.42 3771.44 3101.13 3758.27 3112.26C3731.93 3135.38 3705 3157.63 3676.89 3179.58C3682.46 3180.17 3687.72 3181.05 3693.29 3182.22C3808.62 3205.34 3964.35 3297.26 4068.27 3285.84C4010.6 3371.03 3852.53 3464.41 3671.92 3430.16C3572.68 3411.42 3519.41 3356.39 3491.6 3310.43C3414.32 3359.9 3338.5 3403.23 3259.76 3443.04C3268.54 3445.38 3277.61 3448.31 3286.4 3451.82C3402.02 3498.95 3545.75 3625.41 3656.7 3634.48C3579.71 3711.76 3396.46 3777.63 3214.97 3706.2C3111.05 3665.22 3066.85 3592.92 3048.41 3538.76C3027.04 3547.54 3005.08 3556.32 2982.84 3564.81C2914.34 3590.28 2847.3 3613.11 2778.22 3633.6C2795.78 3638.87 2813.06 3645.9 2829.74 3655.56C2875.99 3681.9 2925.17 3722.3 2974.93 3762.7C2994.84 3778.8 3015.04 3795.19 3034.94 3810.41C3078.27 3843.49 3121 3872.76 3162.28 3888.57C2989.86 3868.37 2813.93 3854.61 2636.25 3847.59C2616.34 3825.93 2601.71 3803.39 2591.17 3781.72C2583.85 3767.09 2578.58 3752.74 2574.48 3738.99C2570.68 3726.69 2568.04 3714.98 2566.29 3704.44C2540.53 3714.69 2514.77 3725.23 2489.59 3736.94C2462.95 3749.23 2436.9 3762.11 2410.56 3776.46C2409.68 3776.75 2409.09 3777.33 2408.21 3777.63C2394.46 3784.94 2380.99 3792.85 2367.23 3801.04C2363.13 3803.39 2341.76 3816.56 2339.42 3818.9C2338.84 3819.49 2337.96 3820.07 2337.37 3820.66C2328.3 3827.98 2319.81 3834.71 2311.91 3841.73C2279.71 3841.73 2247.51 3842.03 2215.31 3842.61C2228.77 3819.19 2244.29 3798.7 2263.31 3777.63C2263.61 3777.04 2263.9 3776.75 2264.48 3776.46C2270.63 3769.72 2277.36 3762.7 2284.39 3755.67C2291.12 3748.35 2297.56 3741.91 2304.3 3735.47C2312.49 3727.28 2321.27 3719.67 2330.35 3711.76C2332.69 3709.71 2335.03 3707.96 2337.37 3705.91C2396.21 3659.07 2457.68 3622.77 2522.38 3592.04C2486.66 3542.57 2446.56 3453.87 2483.74 3330.63C2543.45 3133.04 2718.21 3024.44 2832.96 3011.56C2767.68 3109.33 2778.22 3311.31 2741.63 3438.06C2732.85 3468.21 2718.21 3495.14 2701.23 3518.86C2777.64 3489.58 2852.28 3459.72 2927.22 3427.23C2942.15 3420.5 2957.08 3414.06 2971.42 3407.33C2937.46 3362.25 2905.85 3290.82 2922.54 3190.12C2934.83 3115.18 2965.27 3050.78 3004.21 2998.39C3014.45 2984.63 3025.28 2971.46 3036.41 2959.45C3057.19 2937.21 3079.14 2917.89 3101.39 2901.79C3138.86 2874.56 3177.21 2856.41 3210.87 2847.92C3201.5 2866.66 3195.36 2888.32 3191.26 2912.32C3187.75 2932.23 3185.7 2953.89 3184.53 2976.14C3183.65 2989.9 3183.36 3003.95 3183.36 3018.29C3182.18 3100.84 3188.33 3190.12 3177.79 3259.21C3174.87 3278.53 3169.3 3296.68 3162.28 3313.95C3237.22 3274.14 3309.23 3231.98 3382.12 3184.27C3351.38 3152.07 3321.82 3104.35 3313.33 3035.27C3311.86 3025.32 3311.28 3014.78 3310.98 3003.95C3310.98 3000.14 3310.98 2996.34 3310.98 2992.82C3310.98 2970.87 3312.74 2949.5 3316.25 2928.72C3339.38 2782.06 3437.74 2673.17 3517.65 2636.28C3493.94 2721.76 3537.26 2855.54 3553.66 2966.19C3556.58 2986.09 3558.63 3005.12 3559.22 3023.27C3559.22 3026.2 3559.22 3029.12 3559.22 3032.34C3559.22 3041.42 3558.34 3050.2 3557.17 3058.98C3566.54 3051.66 3575.61 3044.34 3584.68 3036.73C3606.05 3019.17 3627.13 3001.31 3647.62 2983.16C3676.02 2958.28 3703.82 2932.23 3731.63 2905.01C3694.16 2878.08 3655.52 2833.58 3637.08 2760.4C3594.34 2592.96 3672.8 2439.28 3749.2 2380.44C3744.81 2478.8 3839.94 2619.3 3868.34 2726.15C3870.39 2734.05 3871.85 2741.66 3873.02 2749.57C3922.2 2689.56 3965.52 2629.84 4003.87 2568.08C3963.18 2551.68 3916.93 2519.19 3883.85 2454.5C3810.08 2310.48 3849.6 2154.16 3906.98 2084.2C3923.37 2174.94 4039.29 2282.96 4087.59 2374.58C4091.1 2381.02 4094.03 2387.76 4096.66 2394.49C4126.23 2329.5 4152.58 2260.71 4176.29 2185.48C4135.3 2179.34 4085.25 2159.14 4041.05 2105.57C3945.32 1989.36 3950.01 1839.19 3988.36 1764.25C4021.43 1843.28 4148.48 1918.81 4210.83 1992.28C4215.51 1997.84 4219.61 2003.41 4223.42 2009.26C4239.52 1934.62 4252.4 1859.38 4261.18 1783.86C4222.24 1785.03 4171.9 1774.79 4121.55 1730.88C4016.46 1638.96 3998.6 1500.79 4022.31 1426.73C4064.17 1494.06 4191.8 1544.12 4259.71 1602.08C4264.98 1606.76 4269.96 1611.74 4274.64 1616.71C4277.86 1539.73 4277.28 1462.45 4272.3 1385.17C4236.59 1393.07 4186.82 1392.48 4132.08 1357.94C4023.48 1289.15 3987.48 1165.91 3998.6 1095.07C4046.32 1150.4 4169.55 1177.92 4239.52 1220.95C4245.96 1224.75 4251.52 1229.14 4257.08 1233.53C4245.96 1153.91 4231.9 1080.14 4212.58 1003.45C4181.56 1017.5 4135.6 1026.28 4078.52 1003.45C3969.62 959.248 3916.93 854.16 3915.47 788.589C3967.57 830.741 4082.91 835.425 4152.87 862.941C4160.77 865.868 4168.38 869.967 4175.41 874.358C4149.94 797.37 4120.08 722.432 4085.25 649.25C4060.37 668.57 4017.92 689.061 3957.33 676.181C3853.12 653.641 3789.59 568.162 3778.18 509.616C3831.16 539.182 3935.08 525.128 4001.82 538.593C4013.24 540.935 4024.36 545.034 4034.31 550.01C4008.55 503.466 3980.45 458.386 3950.59 414.77C3932.44 388.425 3913.71 362.957 3894.39 338.075C3880.34 362.079 3848.43 398.963 3784.62 403.646C3688.9 410.965 3612.49 353.297 3587.61 305.875C3640.89 317.585 3726.66 279.24 3787.84 273.678C3811.55 271.629 3834.67 277.774 3853.7 285.97C3842.87 272.505 3832.04 259.039 3820.92 245.574C3816.23 239.719 3795.45 215.13 3798.67 208.105C3804.23 202.25 3831.16 217.767 3837.02 221.28C3847.85 227.72 3858.38 234.746 3868.63 242.357C3865.7 228.598 3864.82 213.959 3866.87 199.03C3875.95 138.435 3919.56 55.0083 3910.78 1.14648C3956.74 28.9556 4009.43 108.577 3996.55 203.714C3989.23 256.697 3961.13 286.266 3937.71 301.78C3964.64 328.418 3989.53 357.106 4012.36 385.207C4043.97 424.14 4073.83 465.707 4101.35 508.446C4103.4 500.249 4106.03 492.05 4109.54 484.146C4138.23 422.381 4211.12 347.15 4219.02 286.848C4259.13 331.05 4290.45 432.919 4246.25 530.105C4224.59 578.405 4190.92 601.53 4162.82 612.654C4194.73 671.205 4223.42 731.799 4248.3 792.394C4250.93 798.834 4260.3 821.667 4269.08 844.207C4272.3 837.474 4275.81 831.034 4280.2 824.594C4323.24 762.828 4416.62 695.209 4436.52 631.098C4471.65 686.427 4486.28 802.932 4420.13 900.118C4387.05 948.71 4346.07 967.152 4313.28 973.592C4338.75 1055.26 4357.78 1133.13 4373 1216.85C4376.51 1212.46 4380.02 1208.36 4384.12 1204.26C4442.38 1146.3 4555.95 1091.56 4589.91 1026.87C4616.84 1093.32 4609.81 1221.53 4519.65 1313.16C4476.62 1357.06 4431.25 1369.94 4395.25 1371.41C4404.03 1452.79 4408.13 1534.46 4407.83 1615.84C4410.76 1613.2 4413.98 1610.86 4417.2 1608.52C4489.5 1556.12 4620.65 1516.31 4667.78 1452.49C4685.63 1528.31 4656.65 1664.72 4544.54 1747.86C4490.68 1787.67 4439.45 1793.81 4400.81 1789.42C4394.37 1870.22 4384.12 1950.72 4369.49 2030.63C4372.12 2029.17 4374.76 2027.7 4377.39 2026.53C4463.45 1983.21 4610.11 1963.6 4671.29 1903.88C4677.14 1987.89 4622.7 2127.82 4488.92 2197.19C4423.93 2230.86 4367.73 2227.93 4327.04 2216.22L4326.75 2215.63Z" fill="black"/>
<path d="M1526.75 940.457V842.801H1561.9C1668.02 842.801 1721.08 803.738 1721.08 725.613V706.082H1832.41V1494.17H1700.57V940.457H1526.75ZM2200.57 1099.64C2200.57 1298.2 2241.26 1397.49 2322.64 1397.49C2345.43 1397.49 2364.64 1389.35 2380.26 1373.07C2396.54 1356.15 2408.91 1333.36 2417.37 1304.71C2426.49 1275.42 2433 1244.17 2436.9 1210.96C2440.81 1177.11 2442.76 1140 2442.76 1099.64C2442.76 1058.62 2440.81 1021.19 2436.9 987.332C2433 952.827 2426.49 921.251 2417.37 892.605C2408.26 863.96 2395.56 841.499 2379.29 825.223C2363.01 808.947 2343.8 800.809 2321.67 800.809C2240.94 800.809 2200.57 900.418 2200.57 1099.64ZM2067.76 1099.64C2067.76 1023.46 2075.25 957.71 2090.22 902.371C2105.85 847.033 2126.68 805.04 2152.72 776.395C2178.76 747.749 2205.46 727.241 2232.8 714.871C2260.8 701.85 2290.42 695.34 2321.67 695.34C2403.05 695.34 2465.55 730.822 2509.17 801.785C2553.44 872.749 2575.57 972.033 2575.57 1099.64C2575.57 1223.33 2553.76 1321.64 2510.14 1394.56C2467.18 1467.48 2404.68 1503.93 2322.64 1503.93C2292.7 1503.93 2263.73 1497.75 2235.73 1485.38C2208.39 1473.01 2181.37 1452.83 2154.68 1424.83C2128.63 1396.19 2107.48 1354.19 2091.2 1298.86C2075.57 1242.87 2067.76 1176.46 2067.76 1099.64ZM2786.51 1099.64C2786.51 1298.2 2827.2 1397.49 2908.58 1397.49C2931.37 1397.49 2950.57 1389.35 2966.2 1373.07C2982.48 1356.15 2994.84 1333.36 3003.31 1304.71C3012.42 1275.42 3018.93 1244.17 3022.84 1210.96C3026.75 1177.11 3028.7 1140 3028.7 1099.64C3028.7 1058.62 3026.75 1021.19 3022.84 987.332C3018.93 952.827 3012.42 921.251 3003.31 892.605C2994.19 863.96 2981.5 841.499 2965.22 825.223C2948.95 808.947 2929.74 800.809 2907.61 800.809C2826.88 800.809 2786.51 900.418 2786.51 1099.64ZM2653.7 1099.64C2653.7 1023.46 2661.19 957.71 2676.16 902.371C2691.79 847.033 2712.62 805.04 2738.66 776.395C2764.7 747.749 2791.39 727.241 2818.74 714.871C2846.73 701.85 2876.36 695.34 2907.61 695.34C2988.99 695.34 3051.49 730.822 3095.11 801.785C3139.38 872.749 3161.51 972.033 3161.51 1099.64C3161.51 1223.33 3139.7 1321.64 3096.08 1394.56C3053.11 1467.48 2990.61 1503.93 2908.58 1503.93C2878.63 1503.93 2849.66 1497.75 2821.67 1485.38C2794.32 1473.01 2767.31 1452.83 2740.61 1424.83C2714.57 1396.19 2693.41 1354.19 2677.14 1298.86C2661.51 1242.87 2653.7 1176.46 2653.7 1099.64Z" fill="black"/>
<path d="M1560.93 1806.08H1598.04L1668.35 1927.17C1672.9 1934.98 1679.74 1947.03 1688.86 1963.3C1697.97 1979.25 1702.85 1987.88 1703.5 1989.18H1704.48C1708.06 1983.32 1711.8 1976.81 1715.71 1969.65C1719.94 1962.49 1724.34 1954.68 1728.89 1946.21C1733.78 1937.75 1737.52 1931.4 1740.12 1927.17L1809.95 1806.08H1847.06L1720.11 2017.01V2164.96H1688.86V2017.01L1560.93 1806.08ZM1899.3 2164.96V1806.08H2120.01V1832.44H1930.07V1966.23H2101.94V1992.11H1930.07V2138.6H2124.89V2164.96H1899.3ZM2231.34 2031.66H2375.87L2327.53 1897.87C2325.25 1891.04 2321.34 1880.29 2315.81 1865.65C2310.6 1850.67 2307.02 1840.26 2305.07 1834.4H2302.62C2301 1838.63 2297.42 1848.56 2291.88 1864.18C2286.67 1879.48 2282.93 1890.71 2280.65 1897.87L2231.34 2031.66ZM2148.33 2164.96L2284.56 1806.08H2323.13L2458.87 2164.96H2424.7L2385.63 2056.56H2222.06L2182.51 2164.96H2148.33ZM2542.37 1979.9H2646.37C2671.77 1979.9 2691.3 1973.23 2704.97 1959.88C2718.97 1946.21 2725.96 1928.15 2725.96 1905.69C2725.96 1884.2 2718.64 1866.62 2703.99 1852.95C2689.67 1839.28 2669 1832.44 2641.98 1832.44H2542.37V1979.9ZM2511.61 2164.96V1806.08H2649.79C2684.3 1806.08 2710.83 1815.52 2729.38 1834.4C2748.26 1852.95 2757.7 1876.06 2757.7 1903.73C2757.7 1930.1 2750.87 1951.1 2737.2 1966.72C2723.85 1982.02 2709.04 1991.46 2692.76 1995.04C2706.43 2001.55 2716.69 2010.34 2723.52 2021.41C2730.36 2032.48 2735.89 2047.29 2740.12 2065.84C2740.45 2067.79 2741.59 2072.68 2743.54 2080.49C2745.5 2088.3 2746.64 2093.02 2746.96 2094.65C2747.29 2096.28 2748.26 2100.18 2749.89 2106.37C2751.52 2112.55 2752.66 2116.62 2753.31 2118.58C2754.29 2120.53 2755.59 2124.11 2757.21 2129.32C2758.84 2134.2 2760.31 2138.11 2761.61 2141.04C2763.24 2143.97 2765.03 2147.71 2766.98 2152.27C2769.26 2156.5 2771.7 2160.73 2774.3 2164.96H2739.64C2734.43 2155.2 2729.71 2144.78 2725.48 2133.71C2721.57 2122.32 2718.64 2112.88 2716.69 2105.39C2714.73 2097.91 2711.8 2085.37 2707.9 2067.79C2703.67 2049.24 2696.83 2034.43 2687.39 2023.36C2677.95 2011.97 2663.14 2006.27 2642.96 2006.27H2542.37V2164.96H2511.61ZM2805.07 2101.49L2833.87 2090.74C2843.97 2108 2857.8 2121.67 2875.38 2131.76C2892.96 2141.85 2913.3 2146.9 2936.41 2146.9C2963.11 2146.9 2984.75 2140.39 3001.36 2127.37C3018.28 2114.34 3026.75 2096.44 3026.75 2073.65C3026.75 2064.54 3024.79 2056.24 3020.89 2048.75C3017.31 2040.94 3012.91 2034.59 3007.7 2029.71C3002.82 2024.5 2995.66 2019.46 2986.22 2014.57C2977.1 2009.69 2968.8 2005.95 2961.32 2003.34C2954.15 2000.41 2944.71 1996.99 2933 1993.09C2922.25 1989.51 2914.12 1986.9 2908.58 1985.28C2903.05 1983.32 2895.4 1980.39 2885.63 1976.49C2875.87 1972.25 2868.22 1968.51 2862.68 1965.26C2857.48 1962 2851.45 1957.77 2844.62 1952.56C2837.78 1947.03 2832.57 1941.49 2828.99 1935.96C2825.41 1930.1 2822.32 1923.26 2819.71 1915.45C2817.11 1907.31 2815.81 1898.69 2815.81 1889.57C2815.81 1861.58 2826.39 1839.28 2847.55 1822.68C2869.03 1805.75 2897.84 1797.29 2933.97 1797.29C2960.67 1797.29 2984.1 1803.47 3004.29 1815.84C3024.79 1827.89 3039.44 1843.02 3048.23 1861.25L3021.86 1870.53C3002.01 1839.28 2972.38 1823.65 2933 1823.65C2906.3 1823.65 2885.31 1829.68 2870.01 1841.72C2855.03 1853.76 2847.55 1869.72 2847.55 1889.57C2847.55 1904.22 2852.92 1916.92 2863.66 1927.66C2874.73 1938.4 2885.31 1946.05 2895.4 1950.61C2905.49 1954.84 2922.09 1960.7 2945.2 1968.19C2947.48 1969.16 2949.27 1969.81 2950.57 1970.14C2963.27 1974.37 2974.01 1978.28 2982.8 1981.86C2991.59 1985.11 3001.19 1989.67 3011.61 1995.53C3022.03 2001.39 3030.33 2007.74 3036.51 2014.57C3042.7 2021.08 3047.9 2029.38 3052.14 2039.47C3056.37 2049.24 3058.48 2060.15 3058.48 2072.19C3058.48 2104.09 3047.42 2128.99 3025.28 2146.9C3003.15 2164.8 2973.2 2173.75 2935.44 2173.75C2904.51 2173.75 2877.98 2167.24 2855.85 2154.22C2834.04 2141.2 2817.11 2123.62 2805.07 2101.49Z" fill="black"/>
</svg>
