<svg width="21" height="22" viewBox="0 0 21 22" fill="none" xmlns="http://www.w3.org/2000/svg">
<path d="M19.0776 1.94443C18.4066 1.27344 17.4965 0.896484 16.5476 0.896484C15.5987 0.896484 14.6886 1.27344 14.0176 1.94443L2.0656 13.8964C1.65939 14.3027 1.37381 14.8136 1.2406 15.3724L0.1456 19.9744C0.115951 20.0991 0.118731 20.2292 0.153674 20.3525C0.188617 20.4758 0.254558 20.5881 0.345208 20.6786C0.435858 20.7691 0.548194 20.835 0.671503 20.8698C0.794812 20.9046 0.924983 20.9072 1.0496 20.8774L5.6506 19.7814C6.20979 19.6484 6.72109 19.3628 7.1276 18.9564L8.2786 17.8054C8.13397 17.1509 8.09113 16.478 8.1516 15.8104L6.0666 17.8964C5.8566 18.1064 5.5926 18.2544 5.3036 18.3234L1.8876 19.1374L2.7006 15.7214C2.7696 15.4314 2.9176 15.1674 3.1276 14.9574L13.1256 4.95643L16.0656 7.89643L14.0396 9.92243C14.7069 9.86286 15.3793 9.90568 16.0336 10.0494L19.0776 7.00543C19.7486 6.33443 20.1255 5.42436 20.1255 4.47543C20.1255 3.5265 19.7486 2.61543 19.0776 1.94443ZM15.0776 3.00443C15.2706 2.81138 15.4998 2.65826 15.752 2.55378C16.0043 2.44931 16.2746 2.39553 16.5476 2.39553C16.8206 2.39553 17.0909 2.44931 17.3432 2.55378C17.5954 2.65825 17.8246 2.81138 18.0176 3.00443C18.2106 3.19747 18.3638 3.42665 18.4682 3.67887C18.5727 3.93109 18.6265 4.20142 18.6265 4.47443C18.6265 4.74743 18.5727 5.01776 18.4682 5.26999C18.3638 5.52221 18.2106 5.75139 18.0176 5.94443L17.1256 6.83543L14.1856 3.89643L15.0776 3.00543V3.00443ZM11.4026 12.8724C11.4772 13.131 11.4989 13.4019 11.4663 13.669C11.4338 13.9361 11.3476 14.1939 11.2131 14.427C11.0786 14.66 10.8984 14.8635 10.6833 15.0253C10.4683 15.1871 10.2228 15.3038 9.9616 15.3684L9.3776 15.5134C9.284 16.1123 9.28602 16.7222 9.3836 17.3204L9.9236 17.4504C10.1872 17.5139 10.4351 17.6303 10.6523 17.7926C10.8695 17.9549 11.0514 18.1596 11.187 18.3944C11.3227 18.6291 11.4091 18.889 11.4412 19.1582C11.4733 19.4275 11.4503 19.7004 11.3736 19.9604L11.1866 20.5914C11.6266 20.9774 12.1266 21.2914 12.6716 21.5134L13.1646 20.9944C13.3514 20.7979 13.5763 20.6414 13.8254 20.5345C14.0746 20.4276 14.3429 20.3725 14.6141 20.3725C14.8853 20.3725 15.1536 20.4276 15.4028 20.5345C15.6519 20.6414 15.8768 20.7979 16.0636 20.9944L16.5626 21.5204C17.1037 21.3001 17.6045 20.9916 18.0446 20.6074L17.8466 19.9214C17.772 19.6628 17.7504 19.3918 17.783 19.1246C17.8156 18.8575 17.9018 18.5996 18.0365 18.3666C18.1711 18.1335 18.3514 17.93 18.5666 17.7683C18.7817 17.6066 19.0273 17.49 19.2886 17.4254L19.8716 17.2804C19.9652 16.6816 19.9632 16.0717 19.8656 15.4734L19.3256 15.3434C19.0621 15.2798 18.8143 15.1633 18.5972 15.001C18.3801 14.8387 18.1983 14.6339 18.0628 14.3992C17.9273 14.1644 17.8409 13.9046 17.8089 13.6354C17.7769 13.3663 17.7999 13.0934 17.8766 12.8334L18.0626 12.2024C17.6226 11.8148 17.121 11.5032 16.5786 11.2804L16.0856 11.7984C15.8988 11.9951 15.6739 12.1517 15.4246 12.2587C15.1753 12.3657 14.9069 12.4209 14.6356 12.4209C14.3643 12.4209 14.0959 12.3657 13.8466 12.2587C13.5973 12.1517 13.3724 11.9951 13.1856 11.7984L12.6876 11.2734C12.1436 11.4934 11.6436 11.8034 11.2046 12.1864L11.4026 12.8724ZM14.6256 17.8964C13.8256 17.8964 13.1756 17.2254 13.1756 16.3964C13.1756 15.5684 13.8256 14.8964 14.6256 14.8964C15.4256 14.8964 16.0756 15.5684 16.0756 16.3964C16.0756 17.2254 15.4256 17.8964 14.6256 17.8964Z" fill="black"/>
</svg>
