<svg width="757" height="376" viewBox="0 0 757 376" fill="none" xmlns="http://www.w3.org/2000/svg">
<path d="M96.3614 228.104C103.811 213.214 109.851 198.714 114.751 184.984C210.501 143.664 271.981 90.2037 275.261 87.3237L258.361 68.1037C257.641 68.7237 206.011 113.624 124.841 152.184C135.791 109.954 135.811 80.2237 135.791 77.6037L110.191 77.8337C110.191 78.5237 110.171 115.564 93.9114 165.894C70.2314 175.654 44.6014 184.504 17.4314 191.464L12.6014 192.714V214.514L16.0814 215.834C16.5514 216.024 34.7114 223.034 61.7214 237.904C46.6214 263.764 26.7814 290.274 0.761353 315.324L18.5214 333.764C46.5014 306.824 67.8113 278.474 84.0313 250.854C126.181 276.624 180.561 317.364 224.961 375.574L245.311 360.044C197.831 297.784 140.611 254.964 96.3714 228.114L96.3614 228.104ZM57.4814 206.534C65.7614 203.884 73.8713 201.074 81.7813 198.164C79.3713 203.754 76.7614 209.424 73.9414 215.174C68.0314 211.944 62.5214 209.064 57.4814 206.534Z" fill="black"/>
<path d="M144.411 24.9437C144.411 38.5937 133.341 49.6737 119.681 49.6737C106.021 49.6737 94.9514 38.6037 94.9514 24.9437C94.9514 11.2837 106.021 0.213745 119.681 0.213745C133.341 0.213745 144.411 11.2837 144.411 24.9437Z" fill="black"/>
<path d="M281.411 220.494H298.232L316.401 181.464H333.901V188.864L312.361 227.894L335.241 268.274V275.674H317.741L298.232 235.294H281.411V275.674H263.911V181.464H281.411V220.494Z" fill="black" stroke="#1D1E1B" stroke-miterlimit="10"/>
<path d="M392.432 275.674L390.412 267.594H389.062C387.992 269.394 386.692 270.964 385.162 272.304C383.722 273.554 382.062 274.654 380.182 275.604C378.302 276.544 376.102 277.014 373.592 277.014H362.822C359.952 277.014 357.332 276.534 354.952 275.604C352.572 274.654 350.512 273.354 348.762 271.704C347.012 270.044 345.672 268.114 344.722 265.914C343.782 263.704 343.312 261.354 343.312 258.844V251.434C343.312 248.924 343.782 246.564 344.722 244.374C345.662 242.174 347.012 240.244 348.762 238.574C350.512 236.924 352.582 235.624 354.952 234.674C357.332 233.734 359.952 233.264 362.822 233.264H387.052V228.544C387.052 223.614 384.582 221.144 379.642 221.144H349.362V207.004H384.352C387.222 207.004 389.842 207.474 392.222 208.424C394.602 209.364 396.662 210.664 398.412 212.324C400.162 213.974 401.502 215.904 402.452 218.114C403.392 220.314 403.862 222.674 403.862 225.184V275.654H392.422L392.432 275.674ZM381.122 261.744C382.472 260.984 383.592 260.104 384.482 259.114C385.472 258.034 386.322 256.824 387.042 255.484V247.404H366.852C364.792 247.404 363.152 248.014 361.942 249.224C360.732 250.434 360.122 252.074 360.122 254.134V256.154C360.122 258.224 360.722 259.854 361.942 261.074C363.152 262.284 364.792 262.894 366.852 262.894H376.272C378.152 262.894 379.772 262.514 381.122 261.744Z" fill="black" stroke="#1D1E1B" stroke-miterlimit="10"/>
<path d="M451.641 249.424L432.801 246.064C430.821 245.704 428.901 245.004 427.011 243.974C425.131 242.944 423.471 241.624 422.031 240.004C420.601 238.384 419.451 236.554 418.601 234.484C417.751 232.414 417.321 230.214 417.321 227.884V225.194C417.321 222.684 417.791 220.324 418.731 218.124C419.671 215.924 421.021 213.994 422.771 212.334C424.521 210.674 426.581 209.374 428.961 208.434C431.341 207.484 433.961 207.014 436.831 207.014H471.151V217.114L467.111 221.154H440.861C438.801 221.154 437.161 221.714 435.951 222.834C434.741 223.954 434.131 225.184 434.131 226.534C434.131 228.514 434.511 230.034 435.271 231.114C436.031 232.194 437.451 232.914 439.511 233.274L459.031 236.634C463.071 237.354 466.551 239.254 469.461 242.354C472.381 245.454 473.831 249.374 473.831 254.134V257.504C473.831 260.014 473.361 262.384 472.421 264.574C471.481 266.774 470.131 268.704 468.381 270.364C466.631 272.024 464.571 273.324 462.191 274.264C459.811 275.204 457.191 275.674 454.311 275.674H416.631V261.544H450.951C454.991 261.544 457.011 259.524 457.011 255.494C457.011 251.994 455.211 249.974 451.621 249.434L451.641 249.424Z" fill="black" stroke="#1D1E1B" stroke-miterlimit="10"/>
<path d="M483.922 207.024H494.021L500.751 187.504H510.852V207.024H527.681V221.164H510.852V254.814C510.852 256.874 511.501 258.514 512.801 259.724C514.101 260.934 515.921 261.544 518.251 261.544H531.712V275.674H513.541C510.671 275.674 508.052 275.204 505.672 274.264C503.292 273.324 501.232 272.024 499.482 270.364C497.732 268.704 496.381 266.764 495.441 264.574C494.501 262.384 494.031 260.024 494.031 257.504V221.164H483.931V207.024H483.922Z" fill="black" stroke="#1D1E1B" stroke-miterlimit="10"/>
<path d="M545.221 216.784C546.161 214.594 547.512 212.664 549.262 210.994C551.012 209.334 553.072 208.034 555.452 207.094C557.832 206.154 560.452 205.684 563.332 205.684H586.212C589.082 205.684 591.712 206.154 594.082 207.094C596.462 208.034 598.522 209.334 600.272 210.994C602.022 212.654 603.371 214.594 604.311 216.784C605.251 218.984 605.721 221.344 605.721 223.854V258.854C605.721 261.364 605.251 263.714 604.311 265.924C603.371 268.124 602.022 270.044 600.272 271.714C598.522 273.364 596.452 274.664 594.082 275.614C591.702 276.554 589.082 277.024 586.212 277.024H563.332C560.462 277.024 557.832 276.544 555.452 275.614C553.082 274.664 551.012 273.364 549.262 271.714C547.512 270.054 546.161 268.124 545.221 265.924C544.281 263.714 543.811 261.364 543.811 258.854V223.854C543.811 221.344 544.281 218.974 545.221 216.784ZM588.892 226.544C588.892 224.484 588.241 222.844 586.941 221.634C585.641 220.424 583.821 219.814 581.491 219.814H568.032C565.702 219.814 563.882 220.424 562.582 221.634C561.282 222.844 560.632 224.484 560.632 226.544V256.154C560.632 258.224 561.282 259.854 562.582 261.074C563.882 262.284 565.702 262.894 568.032 262.894H581.491C583.821 262.894 585.641 262.284 586.941 261.074C588.241 259.864 588.892 258.224 588.892 256.154V226.544Z" fill="black" stroke="#1D1E1B" stroke-miterlimit="10"/>
<path d="M702.611 205.684C705.481 205.684 708.111 206.154 710.491 207.094C712.871 208.034 714.931 209.334 716.681 210.994C718.431 212.654 719.781 214.594 720.721 216.784C721.661 218.984 722.132 221.344 722.132 223.854V275.674H705.301V226.544C705.301 224.484 704.651 222.844 703.351 221.634C702.051 220.424 700.232 219.814 697.902 219.814H687.132C684.802 219.814 682.981 220.424 681.681 221.634C680.381 222.844 679.731 224.484 679.731 226.544V275.674H662.911V226.544C662.911 224.484 662.262 222.844 660.962 221.634C659.662 220.424 657.842 219.814 655.512 219.814H648.111C646.221 219.814 644.612 220.194 643.262 220.954C641.912 221.714 640.792 222.554 639.892 223.444C638.902 224.614 638.052 225.864 637.332 227.214V275.664H620.512V207.014H631.952L633.971 215.094H635.322C636.402 213.304 637.691 211.734 639.221 210.384C640.651 209.124 642.322 208.024 644.202 207.084C646.082 206.144 648.281 205.674 650.791 205.674H657.522C660.752 205.674 663.441 206.114 665.601 207.014C667.751 207.914 669.462 208.904 670.712 209.984C672.242 211.324 673.451 212.804 674.351 214.424H675.022C675.922 212.804 677.131 211.324 678.661 209.984C680.001 208.814 681.732 207.804 683.842 206.954C685.952 206.104 688.621 205.674 691.851 205.674H702.621L702.611 205.684Z" fill="black" stroke="#1D1E1B" stroke-miterlimit="10"/>
<path d="M755.751 198.284H738.931V179.434H755.751V198.284ZM755.751 275.674H738.931V207.024H755.751V275.674Z" fill="black" stroke="#1D1E1B" stroke-miterlimit="10"/>
<path d="M509.549 75.3359V106.83H506.62V70.2578H509.354L509.549 75.3359ZM527.909 83.2216V83.7343C527.909 85.7037 527.681 87.5104 527.225 89.1542C526.769 90.7981 526.11 92.2223 525.248 93.4267C524.401 94.6148 523.351 95.5344 522.098 96.1855C520.845 96.8365 519.421 97.162 517.826 97.162C516.247 97.162 514.839 96.9179 513.602 96.4296C512.365 95.9413 511.299 95.2496 510.404 94.3544C509.525 93.443 508.817 92.385 508.28 91.1806C507.759 89.9599 507.393 88.6253 507.181 87.1767V80.414C507.425 78.8189 507.824 77.3704 508.377 76.0683C508.931 74.7662 509.639 73.6432 510.501 72.6992C511.38 71.7551 512.422 71.0309 513.626 70.5263C514.831 70.0217 516.206 69.7695 517.752 69.7695C519.364 69.7695 520.796 70.0869 522.049 70.7216C523.319 71.3401 524.385 72.2434 525.248 73.4316C526.126 74.6035 526.786 76.0195 527.225 77.6796C527.681 79.3235 527.909 81.1708 527.909 83.2216ZM524.979 83.7343V83.2216C524.979 81.6754 524.816 80.2431 524.491 78.9247C524.181 77.6064 523.701 76.4589 523.05 75.4824C522.416 74.4895 521.602 73.7164 520.609 73.163C519.632 72.6096 518.469 72.3329 517.118 72.3329C515.718 72.3329 514.522 72.5689 513.529 73.041C512.552 73.4967 511.738 74.107 511.087 74.872C510.436 75.6207 509.924 76.4426 509.549 77.3378C509.175 78.233 508.898 79.1119 508.719 79.9745V87.7626C509.028 88.9996 509.525 90.1471 510.208 91.205C510.892 92.2467 511.804 93.0849 512.943 93.7197C514.098 94.3382 515.506 94.6474 517.167 94.6474C518.501 94.6474 519.657 94.3707 520.633 93.8173C521.61 93.2639 522.416 92.4908 523.05 91.498C523.701 90.5051 524.181 89.3495 524.491 88.0312C524.816 86.7128 524.979 85.2805 524.979 83.7343ZM532.792 83.8808V83.0751C532.792 81.1546 533.068 79.3805 533.622 77.7529C534.175 76.1253 534.964 74.7174 535.99 73.5292C537.031 72.3411 538.277 71.4215 539.725 70.7704C541.174 70.1031 542.785 69.7695 544.559 69.7695C546.349 69.7695 547.969 70.1031 549.417 70.7704C550.866 71.4215 552.111 72.3411 553.153 73.5292C554.194 74.7174 554.992 76.1253 555.545 77.7529C556.099 79.3805 556.375 81.1546 556.375 83.0751V83.8808C556.375 85.8014 556.099 87.5755 555.545 89.2031C554.992 90.8144 554.194 92.2141 553.153 93.4023C552.127 94.5904 550.89 95.5182 549.442 96.1855C547.993 96.8365 546.382 97.162 544.608 97.162C542.818 97.162 541.198 96.8365 539.75 96.1855C538.301 95.5182 537.056 94.5904 536.014 93.4023C534.972 92.2141 534.175 90.8144 533.622 89.2031C533.068 87.5755 532.792 85.8014 532.792 83.8808ZM535.697 83.0751V83.8808C535.697 85.3294 535.892 86.7047 536.283 88.0068C536.673 89.2926 537.243 90.44 537.992 91.4492C538.74 92.442 539.668 93.2232 540.775 93.7929C541.882 94.3626 543.159 94.6474 544.608 94.6474C546.04 94.6474 547.302 94.3626 548.392 93.7929C549.499 93.2232 550.427 92.442 551.175 91.4492C551.924 90.44 552.486 89.2926 552.86 88.0068C553.25 86.7047 553.446 85.3294 553.446 83.8808V83.0751C553.446 81.6428 553.25 80.2838 552.86 78.998C552.486 77.7122 551.916 76.5647 551.151 75.5556C550.402 74.5465 549.474 73.749 548.368 73.163C547.261 72.5771 545.991 72.2841 544.559 72.2841C543.127 72.2841 541.857 72.5771 540.75 73.163C539.66 73.749 538.732 74.5465 537.967 75.5556C537.219 76.5647 536.649 77.7122 536.258 78.998C535.884 80.2838 535.697 81.6428 535.697 83.0751ZM569.754 90.497L576.126 70.2578H578.177L576.957 75.7021L570.292 96.6738H568.241L569.754 90.497ZM563.138 70.2578L568.729 90.6191L569.925 96.6738H567.801L560.135 70.2578H563.138ZM586.112 90.5458L591.556 70.2578H594.559L586.893 96.6738H584.793L586.112 90.5458ZM578.592 70.2578L584.867 90.3261L586.454 96.6738H584.403L577.591 75.6777L576.444 70.2578H578.592ZM610.379 97.162C608.654 97.162 607.067 96.8447 605.619 96.2099C604.186 95.5751 602.933 94.68 601.859 93.5244C600.801 92.3688 599.979 91.0016 599.393 89.4228C598.823 87.8277 598.539 86.0862 598.539 84.1982V83.1484C598.539 81.1139 598.84 79.2747 599.442 77.6308C600.044 75.9869 600.874 74.579 601.932 73.4072C602.99 72.2353 604.194 71.3401 605.545 70.7216C606.913 70.0869 608.345 69.7695 609.842 69.7695C611.519 69.7695 613.008 70.0706 614.31 70.6728C615.612 71.2587 616.703 72.0969 617.582 73.1874C618.477 74.2617 619.152 75.5393 619.608 77.0204C620.064 78.4853 620.292 80.1048 620.292 81.8788V83.6611H600.296V81.1708H617.386V80.829C617.354 79.3479 617.053 77.9645 616.483 76.6786C615.93 75.3766 615.099 74.3186 613.993 73.5048C612.886 72.691 611.502 72.2841 609.842 72.2841C608.605 72.2841 607.466 72.5445 606.424 73.0654C605.399 73.5862 604.512 74.3349 603.763 75.3115C603.031 76.2717 602.461 77.4192 602.054 78.7538C601.664 80.0722 601.468 81.537 601.468 83.1484V84.1982C601.468 85.663 601.68 87.0302 602.103 88.2997C602.542 89.553 603.161 90.6598 603.958 91.6201C604.772 92.5803 605.733 93.329 606.839 93.8661C607.946 94.4033 609.167 94.6718 610.501 94.6718C612.064 94.6718 613.447 94.387 614.652 93.8173C615.856 93.2314 616.939 92.3118 617.899 91.0585L619.73 92.4745C619.16 93.3209 618.444 94.1022 617.582 94.8183C616.735 95.5344 615.718 96.1041 614.53 96.5273C613.342 96.9505 611.958 97.162 610.379 97.162ZM628.958 74.6279V96.6738H626.053V70.2578H628.885L628.958 74.6279ZM638.309 70.0624L638.236 72.748C637.91 72.6992 637.593 72.6585 637.284 72.6259C636.974 72.5934 636.641 72.5771 636.283 72.5771C635.013 72.5771 633.898 72.8131 632.938 73.2851C631.994 73.7408 631.196 74.3837 630.545 75.2138C629.894 76.0276 629.398 76.9879 629.056 78.0947C628.714 79.1852 628.519 80.357 628.47 81.6103L627.396 82.0253C627.396 80.3001 627.575 78.6969 627.933 77.2158C628.291 75.7346 628.836 74.4407 629.569 73.3339C630.318 72.2109 631.253 71.3401 632.376 70.7216C633.516 70.0869 634.85 69.7695 636.38 69.7695C636.755 69.7695 637.121 69.802 637.479 69.8671C637.853 69.916 638.13 69.9811 638.309 70.0624ZM652.616 97.162C650.89 97.162 649.304 96.8447 647.855 96.2099C646.423 95.5751 645.169 94.68 644.095 93.5244C643.037 92.3688 642.215 91.0016 641.629 89.4228C641.06 87.8277 640.775 86.0862 640.775 84.1982V83.1484C640.775 81.1139 641.076 79.2747 641.678 77.6308C642.28 75.9869 643.111 74.579 644.168 73.4072C645.226 72.2353 646.431 71.3401 647.782 70.7216C649.149 70.0869 650.581 69.7695 652.079 69.7695C653.755 69.7695 655.244 70.0706 656.546 70.6728C657.848 71.2587 658.939 72.0969 659.818 73.1874C660.713 74.2617 661.389 75.5393 661.844 77.0204C662.3 78.4853 662.528 80.1048 662.528 81.8788V83.6611H642.533V81.1708H659.623V80.829C659.59 79.3479 659.289 77.9645 658.719 76.6786C658.166 75.3766 657.336 74.3186 656.229 73.5048C655.122 72.691 653.739 72.2841 652.079 72.2841C650.842 72.2841 649.702 72.5445 648.661 73.0654C647.635 73.5862 646.748 74.3349 646 75.3115C645.267 76.2717 644.697 77.4192 644.291 78.7538C643.9 80.0722 643.705 81.537 643.705 83.1484V84.1982C643.705 85.663 643.916 87.0302 644.339 88.2997C644.779 89.553 645.397 90.6598 646.195 91.6201C647.009 92.5803 647.969 93.329 649.076 93.8661C650.182 94.4033 651.403 94.6718 652.738 94.6718C654.3 94.6718 655.684 94.387 656.888 93.8173C658.093 93.2314 659.175 92.3118 660.135 91.0585L661.966 92.4745C661.397 93.3209 660.681 94.1022 659.818 94.8183C658.972 95.5344 657.954 96.1041 656.766 96.5273C655.578 96.9505 654.194 97.162 652.616 97.162ZM685.453 91.5468V59.1738H688.382V96.6738H685.648L685.453 91.5468ZM667.118 83.7343V83.2216C667.118 81.1708 667.354 79.3235 667.826 77.6796C668.298 76.0195 668.973 74.6035 669.852 73.4316C670.747 72.2434 671.821 71.3401 673.075 70.7216C674.328 70.0869 675.744 69.7695 677.323 69.7695C678.869 69.7695 680.236 70.0217 681.424 70.5263C682.612 71.0309 683.63 71.7551 684.476 72.6992C685.339 73.6432 686.03 74.7662 686.551 76.0683C687.088 77.3704 687.479 78.8189 687.723 80.414V86.9326C687.528 88.43 687.17 89.8053 686.649 91.0585C686.128 92.2955 685.436 93.3779 684.574 94.3056C683.711 95.2171 682.669 95.9251 681.449 96.4296C680.244 96.9179 678.853 97.162 677.274 97.162C675.711 97.162 674.304 96.8365 673.05 96.1855C671.797 95.5344 670.731 94.6148 669.852 93.4267C668.973 92.2223 668.298 90.7981 667.826 89.1542C667.354 87.5104 667.118 85.7037 667.118 83.7343ZM670.047 83.2216V83.7343C670.047 85.2805 670.202 86.7128 670.511 88.0312C670.82 89.3495 671.292 90.497 671.927 91.4736C672.562 92.4501 673.368 93.2151 674.344 93.7685C675.321 94.3219 676.476 94.5986 677.811 94.5986C679.487 94.5986 680.895 94.2812 682.035 93.6464C683.174 92.9954 684.085 92.1409 684.769 91.0829C685.453 90.0087 685.949 88.8369 686.258 87.5673V79.9745C686.063 79.1119 685.778 78.233 685.404 77.3378C685.029 76.4426 684.517 75.6207 683.866 74.872C683.231 74.107 682.417 73.4967 681.424 73.041C680.448 72.5689 679.26 72.3329 677.86 72.3329C676.509 72.3329 675.345 72.6096 674.369 73.163C673.392 73.7164 672.578 74.4895 671.927 75.4824C671.292 76.4589 670.82 77.6064 670.511 78.9247C670.202 80.2431 670.047 81.6754 670.047 83.2216ZM708.231 59.1738H711.161V91.5468L710.965 96.6738H708.231V59.1738ZM729.544 83.2216V83.7343C729.544 85.7037 729.317 87.5104 728.861 89.1542C728.405 90.7981 727.746 92.2223 726.883 93.4267C726.021 94.6148 724.963 95.5344 723.709 96.1855C722.472 96.8365 721.048 97.162 719.437 97.162C717.858 97.162 716.458 96.9179 715.238 96.4296C714.017 95.9251 712.975 95.2171 712.113 94.3056C711.25 93.3779 710.558 92.2955 710.038 91.0585C709.517 89.8053 709.151 88.43 708.939 86.9326V80.414C709.183 78.8189 709.574 77.3704 710.111 76.0683C710.648 74.7662 711.34 73.6432 712.186 72.6992C713.049 71.7551 714.074 71.0309 715.262 70.5263C716.467 70.0217 717.842 69.7695 719.388 69.7695C721 69.7695 722.432 70.0869 723.685 70.7216C724.955 71.3401 726.021 72.2434 726.883 73.4316C727.746 74.6035 728.405 76.0195 728.861 77.6796C729.317 79.3235 729.544 81.1708 729.544 83.2216ZM726.59 83.7343V83.2216C726.59 81.6754 726.444 80.2431 726.151 78.9247C725.858 77.6064 725.394 76.4589 724.759 75.4824C724.141 74.4895 723.343 73.7164 722.367 73.163C721.39 72.6096 720.218 72.3329 718.851 72.3329C717.451 72.3329 716.255 72.5689 715.262 73.041C714.286 73.4967 713.472 74.107 712.821 74.872C712.186 75.6207 711.681 76.4426 711.307 77.3378C710.933 78.233 710.656 79.1119 710.477 79.9745V87.5673C710.754 88.788 711.234 89.9355 711.917 91.0097C712.601 92.0839 713.521 92.9547 714.676 93.622C715.832 94.2731 717.24 94.5986 718.9 94.5986C720.235 94.5986 721.382 94.3219 722.342 93.7685C723.319 93.2151 724.116 92.4501 724.735 91.4736C725.37 90.497 725.833 89.3495 726.126 88.0312C726.436 86.7128 726.59 85.2805 726.59 83.7343ZM743.558 94.037L751.786 70.2578H754.935L743.753 100.922C743.526 101.524 743.233 102.191 742.875 102.924C742.533 103.656 742.077 104.356 741.507 105.023C740.954 105.707 740.254 106.26 739.408 106.684C738.578 107.123 737.56 107.343 736.356 107.343C736.047 107.343 735.648 107.302 735.16 107.221C734.688 107.156 734.346 107.09 734.134 107.025L734.11 104.56C734.289 104.608 734.549 104.649 734.891 104.682C735.233 104.714 735.469 104.73 735.599 104.73C736.657 104.73 737.544 104.551 738.26 104.193C738.993 103.835 739.603 103.298 740.091 102.582C740.58 101.882 741.011 101.003 741.385 99.9453L743.558 94.037ZM735.868 70.2578L744.291 92.9384L745.072 95.9902L742.948 97.1865L732.694 70.2578H735.868Z" fill="black"/>
</svg>
