<svg width="43" height="43" viewBox="0 0 43 43" fill="none" xmlns="http://www.w3.org/2000/svg">
<g clip-path="url(#clip0_505_168)">
<path d="M21.32 40.9761C32.2276 40.9761 41.07 32.1337 41.07 21.2261C41.07 10.3184 32.2276 1.47607 21.32 1.47607C10.4124 1.47607 1.57001 10.3184 1.57001 21.2261C1.57001 32.1337 10.4124 40.9761 21.32 40.9761Z" stroke="white" stroke-width="2.5"/>
<path d="M16.8402 16.1891C16.0509 16.1891 15.5008 16.6875 15.5008 17.1347V17.2889L15.4819 17.4419L14.2287 27.5641C14.2975 27.9849 14.8251 28.4173 15.5604 28.4173H27.0785C27.8137 28.4173 28.3414 27.9849 28.4102 27.5641L27.157 17.4419L27.138 17.2889V17.1347C27.138 16.6875 26.588 16.1891 25.7987 16.1891H16.8402ZM16.8402 13.6891H25.7987C27.9191 13.6891 29.638 15.2318 29.638 17.1347L30.9178 27.4717C30.9178 29.3746 29.1989 30.9173 27.0785 30.9173H15.5604C13.4399 30.9173 11.721 29.3746 11.721 27.4717L13.0008 17.1347C13.0008 15.2318 14.7197 13.6891 16.8402 13.6891Z" fill="white"/>
<path d="M17.5611 16.871L20.6361 10.505H22.3501L25.4251 16.871" stroke="white" stroke-width="2.5" stroke-linecap="round" stroke-linejoin="round"/>
</g>
<defs>
<clipPath id="clip0_505_168">
<rect width="42" height="42" fill="white" transform="translate(0.320007 0.226074)"/>
</clipPath>
</defs>
</svg>
