<svg xmlns="http://www.w3.org/2000/svg" width="42" height="42" viewBox="0 0 42 42"><defs><style>.a,.b,.c,.e{fill:none;}.a,.c{stroke:#000;stroke-width:2.5px;}.c{stroke-linecap:round;stroke-linejoin:round;}.d,.f{stroke:none;}.f{fill:#000;}</style></defs><g transform="translate(-1759 -70)"><g class="a" transform="translate(1759 70)"><circle class="d" cx="21" cy="21" r="21"/><circle class="e" cx="21" cy="21" r="19.75"/></g><g transform="translate(26.425 48.79)"><g class="b" transform="translate(1743.976 34.673)"><path class="d" d="M5.119,0h8.959a3.659,3.659,0,0,1,3.839,3.446L19.2,13.783a3.659,3.659,0,0,1-3.839,3.446H3.839A3.659,3.659,0,0,1,0,13.783L1.28,3.446A3.659,3.659,0,0,1,5.119,0Z"/><path class="f" d="M 5.119152069091797 2.5 C 4.329852104187012 2.5 3.779792785644531 2.998370170593262 3.779792785644531 3.445639610290527 L 3.779792785644531 3.599809646606445 L 3.760852813720703 3.752809524536133 L 2.507646560668945 13.87503528594971 C 2.576465606689453 14.29579544067383 3.104114532470703 14.72821998596191 3.839362144470215 14.72821998596191 L 15.35746192932129 14.72821998596191 C 16.09271049499512 14.72821998596191 16.62035751342773 14.29579544067383 16.68917846679688 13.87503528594971 L 15.43597221374512 3.752809524536133 L 15.41703224182129 3.599809646606445 L 15.41703224182129 3.445639610290527 C 15.41703224182129 2.998370170593262 14.86697196960449 2.5 14.07767295837402 2.5 L 5.119152069091797 2.5 M 5.119152069091797 0 L 14.07767295837402 0 C 16.19809341430664 0 17.91703224182129 1.542670249938965 17.91703224182129 3.445639610290527 L 19.19682312011719 13.78257942199707 C 19.19682312011719 15.68556022644043 17.47788238525391 17.22821998596191 15.35746192932129 17.22821998596191 L 3.839362144470215 17.22821998596191 C 1.718942642211914 17.22821998596191 1.9073486328125e-06 15.68556022644043 1.9073486328125e-06 13.78257942199707 L 1.279792785644531 3.445639610290527 C 1.279792785644531 1.542670249938965 2.99873161315918 0 5.119152069091797 0 Z"/></g><path class="c" d="M982.588,889.164l3.075-6.366h1.714l3.075,6.366" transform="translate(767.228 -851.309)"/></g></g></svg>