<?xml version="1.0" encoding="utf-8"?>
<!-- Generator: Adobe Illustrator 27.4.1, SVG Export Plug-In . SVG Version: 6.00 Build 0)  -->
<svg version="1.1" id="Vrstva_1" xmlns="http://www.w3.org/2000/svg" xmlns:xlink="http://www.w3.org/1999/xlink" x="0px" y="0px"
	 viewBox="0 0 283.46 126.72" style="enable-background:new 0 0 283.46 126.72;" xml:space="preserve">
<style type="text/css">
	.st0{fill:#1E1E1C;}
	.st1{fill:#020203;}
</style>
<g>
	<g>
		<path class="st0" d="M6.41,112.15c-0.55,0.55-1.27,0.55-1.82,0l-4.18-4.36c-0.55-0.55-0.55-1.27,0-1.82
			c32.54-31.99,35.81-70.53,36.17-78.16c0-0.91,0.73-1.45,1.45-1.45l5.82-0.18c0.91,0,1.45,0.73,1.45,1.45
			C45.12,35.81,42.03,77.25,6.41,112.15z"/>
		<path class="st0" d="M48.21,8.36c0,4.73-3.82,8.36-8.36,8.36c-4.73,0-8.36-3.64-8.36-8.36c0-4.54,3.64-8.36,8.36-8.36
			C44.4,0,48.21,3.82,48.21,8.36z"/>
		<path class="st0" d="M18.4,70.6c-0.73-0.37-0.7-0.78,0.08-1.04c38.66-12.79,65.88-34.41,71.48-39.2c0.62-0.53,0.66-1.31,0.1-1.92
			l-3.97-4.35c-0.55-0.6-1.33-0.65-1.96-0.12c-6.01,5.01-37.53,29.96-80.39,40.92l-0.48,0.1c-0.8,0.16-1.34,0.81-1.34,1.63v4.72
			c0,0.76,0.49,1.4,1.31,1.75c1.48,0.62,41.39,16.39,69.84,53.07c0.5,0.65,1.27,0.75,1.92,0.25l4.73-3.61
			c0.65-0.5,0.76-1.27,0.25-1.91C59.23,94.12,33.34,78.21,18.4,70.6z"/>
	</g>
	<path class="st1" d="M276.58,94.56c-0.29,0-0.46-0.17-0.46-0.46V66.77c0-0.29,0.17-0.46,0.46-0.46H283c0.29,0,0.46,0.17,0.46,0.46
		v27.32c0,0.29-0.17,0.46-0.46,0.46H276.58z M276.58,63.41c-0.29,0-0.46-0.17-0.46-0.46v-7.29c0-0.29,0.17-0.46,0.46-0.46H283
		c0.29,0,0.46,0.17,0.46,0.46v7.29c0,0.29-0.17,0.46-0.46,0.46H276.58z M250.24,68.91c0.17,0.23,0.41,0.23,0.58,0
		c0.98-1.27,1.68-1.85,3.3-2.6c0.87-0.35,2.03-0.52,3.3-0.52h4.34c4.52,0,8.16,3.07,8.16,7.64v20.66c0,0.29-0.17,0.46-0.46,0.46
		h-6.43c-0.29,0-0.46-0.17-0.46-0.46V74.47c0-0.58-0.12-0.98-0.35-1.39c-0.12-0.23-0.41-0.46-0.64-0.58
		c-0.46-0.29-0.98-0.46-1.68-0.46h-4.34c-0.93,0-1.56,0.29-2.03,0.69c-0.46,0.46-0.69,0.98-0.69,1.74v19.62
		c0,0.29-0.17,0.46-0.46,0.46h-6.43c-0.29,0-0.46-0.17-0.46-0.46V74.47c0-0.75-0.23-1.27-0.69-1.74c-0.46-0.41-1.1-0.69-1.97-0.69
		h-3.01c-0.52,0-0.98,0.12-1.39,0.23c-0.23,0.06-0.52,0.23-0.75,0.41c-0.35,0.23-0.69,0.52-0.93,0.75
		c-0.29,0.35-0.52,0.64-0.75,0.98c-0.17,0.23-0.23,0.58-0.23,0.87v18.81c0,0.29-0.17,0.46-0.46,0.46h-6.43
		c-0.29,0-0.46-0.17-0.46-0.46V66.77c0-0.29,0.17-0.46,0.46-0.46h4.23c0.29,0,0.52,0.17,0.58,0.46l0.69,2.78
		c0,0.06,0,0.06,0.06,0.06c0.06,0,0.12-0.06,0.12-0.06c0.81-1.22,1.85-2.26,3.18-2.95c0.41-0.23,0.64-0.35,0.81-0.41
		c0.69-0.29,1.5-0.41,2.37-0.41h2.72c1.1,0,2.08,0.17,2.95,0.41c0.23,0.06,0.52,0.17,0.81,0.29
		C248.68,67.12,249.43,67.76,250.24,68.91z M214.99,72.73c-0.46-0.41-1.1-0.69-1.97-0.69h-5.44c-0.87,0-1.56,0.29-2.03,0.69
		c-0.46,0.46-0.69,0.98-0.69,1.74v11.92c0,0.81,0.23,1.33,0.69,1.79c0.46,0.41,1.16,0.64,2.03,0.64h5.44c0.87,0,1.51-0.23,1.97-0.64
		c0.46-0.46,0.69-0.98,0.69-1.79V74.47C215.68,73.72,215.45,73.2,214.99,72.73z M218.58,94.38c-0.23,0.12-0.58,0.23-0.81,0.29
		c-0.87,0.29-1.85,0.46-2.89,0.46h-9.2c-1.04,0-1.97-0.17-2.89-0.46c-0.23-0.06-0.58-0.23-0.81-0.35c-1.68-0.87-2.72-1.74-3.65-3.47
		c-0.12-0.23-0.35-0.58-0.41-0.81c-0.29-0.81-0.41-1.62-0.41-2.55V73.43c0-0.93,0.12-1.79,0.41-2.6c0.06-0.23,0.29-0.58,0.41-0.81
		c1.62-2.78,4.05-4.23,7.35-4.23h9.2c4.52,0,8.16,3.07,8.16,7.64v14.07C223.03,90.79,221.3,92.99,218.58,94.38z M177.07,66.31
		c0.29,0,0.52-0.17,0.64-0.41l2.37-7c0.12-0.23,0.35-0.41,0.64-0.41h3.65c0.29,0,0.46,0.17,0.46,0.46v6.89
		c0,0.29,0.17,0.46,0.46,0.46h5.85c0.29,0,0.46,0.17,0.46,0.46v5.38c0,0.29-0.17,0.46-0.46,0.46h-5.85c-0.29,0-0.46,0.17-0.46,0.46
		v12.79c0,0.75,0.23,1.39,0.64,1.74c0.46,0.46,1.16,0.69,2.03,0.69h5.27c0.29,0,0.46,0.17,0.46,0.46v5.33
		c0,0.29-0.17,0.46-0.46,0.46h-7.12c-4.46,0-8.16-3.07-8.16-7.58V73.08c0-0.29-0.17-0.46-0.46-0.46h-3.13
		c-0.29,0-0.46-0.17-0.46-0.46v-5.38c0-0.29,0.17-0.46,0.46-0.46H177.07z M153.51,82.69c-0.29-0.06-0.64-0.06-0.93-0.12
		c-0.69-0.17-1.27-0.46-1.97-0.81c-1.62-0.93-2.49-2.03-3.3-3.53c-0.12-0.23-0.35-0.58-0.41-0.81c-0.23-0.75-0.35-1.56-0.35-2.37
		v-1.1c0-3.3,1.74-5.5,4.46-6.89c0.23-0.12,0.52-0.23,0.81-0.29c0.93-0.29,1.85-0.46,2.89-0.46h13.66c0.29,0,0.46,0.17,0.46,0.46
		v3.59c0,0.29-0.17,0.64-0.35,0.81l-1.1,1.1c-0.17,0.17-0.52,0.35-0.81,0.35h-10.25c-0.58,0-1.04,0.12-1.45,0.35
		c-0.23,0.17-0.52,0.35-0.69,0.58c-0.23,0.29-0.29,0.64-0.29,0.93c0,1.27,0.35,2.08,1.5,2.37c0.29,0.06,0.64,0.06,0.93,0.12
		l7.35,1.33c3.7,0.64,6.19,3.53,6.19,7.29v1.39c0,0.87-0.12,1.74-0.35,2.55c-0.06,0.23-0.29,0.58-0.41,0.81
		c-0.35,0.64-0.69,1.22-1.22,1.74c-0.17,0.17-0.46,0.41-0.69,0.58c-1.5,1.27-3.53,1.91-5.44,1.91h-15.05
		c-0.29,0-0.46-0.17-0.46-0.46v-5.33c0-0.29,0.17-0.46,0.46-0.46h13.66c1.45,0,2.14-0.69,2.14-2.14c0-1.16-0.41-1.85-1.45-2.08
		c-0.12-0.06-0.46-0.06-0.93-0.12L153.51,82.69z M133.08,87.73c0.17-0.17,0.46-0.41,0.64-0.64c0.12-0.17,0.29-0.41,0.41-0.58
		c0.17-0.23,0.23-0.58,0.23-0.87v-2.03c0-0.29-0.17-0.46-0.46-0.46h-7.35c-0.52,0-1.04,0.17-1.39,0.41
		c-0.23,0.17-0.46,0.41-0.64,0.64c-0.29,0.35-0.41,0.81-0.41,1.39v0.81c0,0.64,0.12,1.1,0.41,1.45c0.17,0.23,0.41,0.52,0.64,0.64
		c0.35,0.23,0.87,0.35,1.39,0.35h3.76c0.81,0,1.33-0.12,1.79-0.41h0.06C132.5,88.25,132.79,87.96,133.08,87.73z M135.8,91.37
		c0-0.06,0-0.06-0.06-0.06c-0.06,0-0.17,0-0.17,0.06c-0.41,0.64-0.87,1.22-1.5,1.79c-1.45,1.16-2.89,1.97-4.8,1.97h-4.34
		c-1.04,0-1.97-0.17-2.89-0.46c-0.29-0.06-0.58-0.23-0.81-0.35c-2.78-1.45-4.46-3.65-4.46-6.83v-2.95c0-3.3,1.74-5.5,4.46-6.89
		c0.23-0.12,0.58-0.29,0.81-0.35c0.93-0.29,1.85-0.41,2.89-0.41h8.97c0.29,0,0.46-0.17,0.46-0.46v-1.16c0-1.79-0.87-2.66-2.66-2.66
		h-12.04c-0.29,0-0.46-0.17-0.46-0.46v-5.38c0-0.29,0.17-0.46,0.46-0.46h13.95c1.04,0,1.97,0.17,2.84,0.46
		c0.23,0.06,0.58,0.17,0.81,0.29c0.69,0.35,1.27,0.75,1.85,1.16c0.23,0.17,0.46,0.46,0.64,0.64c0.46,0.52,0.93,1.1,1.27,1.74
		c0.12,0.23,0.29,0.58,0.35,0.81c0.23,0.81,0.35,1.62,0.35,2.55v20.14c0,0.29-0.17,0.46-0.46,0.46h-4.17
		c-0.29,0-0.52-0.17-0.58-0.46L135.8,91.37z M98.24,71.75c0.29,0,0.52-0.17,0.64-0.41l7-14.88c0.12-0.23,0.35-0.41,0.64-0.41h6.6
		c0.29,0,0.46,0.17,0.46,0.46v2.37c0,0.29-0.12,0.64-0.23,0.87l-8.16,14.88c-0.12,0.23-0.12,0.58,0,0.81l8.68,15.4
		c0.12,0.23,0.23,0.58,0.23,0.87v2.37c0,0.29-0.17,0.46-0.46,0.46h-6.6c-0.29,0-0.52-0.17-0.64-0.41L98.87,78.7
		c-0.12-0.23-0.35-0.41-0.64-0.41h-5.38c-0.29,0-0.46,0.17-0.46,0.46v15.34c0,0.29-0.17,0.46-0.46,0.46h-6.71
		c-0.29,0-0.46-0.17-0.46-0.46V56.53c0-0.29,0.17-0.46,0.46-0.46h6.71c0.29,0,0.46,0.17,0.46,0.46v14.76c0,0.29,0.17,0.46,0.46,0.46
		H98.24z"/>
</g>
<g>
	<path class="st1" d="M174.16,21.56c0.51,0,0.97,0.08,1.38,0.24c0.41,0.16,0.76,0.38,1.05,0.66c0.29,0.28,0.52,0.62,0.68,1
		c0.16,0.38,0.25,0.8,0.25,1.24v5.38c0,0.45-0.08,0.86-0.25,1.24c-0.16,0.38-0.39,0.71-0.68,1c-0.29,0.28-0.64,0.5-1.05,0.66
		c-0.41,0.16-0.87,0.24-1.38,0.24h-4.59v3.81H168V21.78H169l0.22,1.57h0.11c0.18-0.33,0.41-0.63,0.69-0.9
		c0.24-0.24,0.53-0.45,0.87-0.63c0.34-0.18,0.75-0.27,1.23-0.27H174.16z M172.14,22.9c-0.42,0-0.79,0.1-1.11,0.31
		s-0.59,0.44-0.82,0.69c-0.25,0.3-0.47,0.63-0.65,1.01v6.94h4.59c0.51,0,0.93-0.17,1.28-0.52c0.34-0.34,0.52-0.77,0.52-1.28v-5.38
		c0-0.51-0.17-0.93-0.52-1.28c-0.34-0.34-0.77-0.52-1.28-0.52H172.14z"/>
	<path class="st1" d="M180.65,24.69c0-0.45,0.08-0.86,0.25-1.24c0.16-0.38,0.39-0.71,0.68-1c0.29-0.28,0.64-0.5,1.05-0.66
		c0.41-0.16,0.87-0.24,1.38-0.24h2.8c0.51,0,0.97,0.08,1.38,0.24c0.41,0.16,0.76,0.38,1.05,0.66s0.52,0.62,0.68,1
		c0.16,0.38,0.25,0.8,0.25,1.24v5.6c0,0.45-0.08,0.86-0.25,1.24s-0.39,0.71-0.68,1s-0.64,0.5-1.05,0.66
		c-0.41,0.16-0.87,0.24-1.38,0.24h-2.8c-1.08,0-1.9-0.3-2.49-0.9c-0.58-0.6-0.87-1.34-0.87-2.24V24.69z M182.22,30.29
		c0,0.51,0.17,0.93,0.52,1.28c0.34,0.34,0.77,0.52,1.28,0.52h2.8c0.51,0,0.93-0.17,1.28-0.52c0.34-0.34,0.51-0.77,0.51-1.28v-5.6
		c0-0.51-0.17-0.93-0.51-1.28c-0.34-0.34-0.77-0.52-1.28-0.52h-2.8c-0.51,0-0.93,0.17-1.28,0.52c-0.34,0.34-0.52,0.77-0.52,1.28
		V30.29z"/>
	<path class="st1" d="M197,33.2h-1.79l-3.02-10.75v-0.67h1.57l2.46,9.18h0.11l2.35-7.62h1.9l2.35,7.62h0.11l2.46-9.18h1.57v0.67
		l-3.02,10.75h-1.79l-2.58-7.84h-0.11L197,33.2z"/>
	<path class="st1" d="M212.46,33.2c-1.08,0-1.9-0.3-2.49-0.9c-0.58-0.6-0.87-1.34-0.87-2.24v-5.38c0-0.45,0.08-0.86,0.25-1.24
		c0.16-0.38,0.39-0.71,0.68-1c0.29-0.28,0.64-0.5,1.05-0.66c0.41-0.16,0.87-0.24,1.38-0.24h2.46c0.51,0,0.97,0.08,1.38,0.24
		c0.41,0.16,0.76,0.38,1.05,0.66s0.52,0.62,0.68,1c0.16,0.38,0.25,0.8,0.25,1.24v3.47h-7.62v1.9c0,0.51,0.17,0.93,0.52,1.28
		c0.34,0.34,0.77,0.52,1.28,0.52h5.38v1.34H212.46z M210.67,26.82h6.05v-2.13c0-0.51-0.17-0.93-0.51-1.28
		c-0.34-0.34-0.77-0.52-1.28-0.52h-2.46c-0.51,0-0.93,0.17-1.28,0.52c-0.34,0.34-0.52,0.77-0.52,1.28V26.82z"/>
	<path class="st1" d="M227.92,23.01h-2.13c-0.42,0-0.79,0.1-1.11,0.29c-0.32,0.19-0.59,0.41-0.82,0.65
		c-0.25,0.28-0.47,0.6-0.65,0.96v8.29h-1.57V21.78h1.01l0.22,1.57h0.11c0.18-0.33,0.41-0.63,0.69-0.9c0.24-0.24,0.53-0.45,0.87-0.63
		c0.34-0.18,0.75-0.27,1.23-0.27h2.13V23.01z"/>
	<path class="st1" d="M233.07,33.2c-1.08,0-1.9-0.3-2.49-0.9c-0.58-0.6-0.87-1.34-0.87-2.24v-5.38c0-0.45,0.08-0.86,0.25-1.24
		c0.16-0.38,0.39-0.71,0.68-1c0.29-0.28,0.64-0.5,1.05-0.66c0.41-0.16,0.87-0.24,1.38-0.24h2.46c0.51,0,0.97,0.08,1.38,0.24
		c0.41,0.16,0.76,0.38,1.05,0.66s0.52,0.62,0.68,1c0.16,0.38,0.25,0.8,0.25,1.24v3.47h-7.62v1.9c0,0.51,0.17,0.93,0.52,1.28
		c0.34,0.34,0.77,0.52,1.28,0.52h5.38v1.34H233.07z M231.28,26.82h6.05v-2.13c0-0.51-0.17-0.93-0.51-1.28
		c-0.34-0.34-0.77-0.52-1.28-0.52h-2.46c-0.51,0-0.93,0.17-1.28,0.52c-0.34,0.34-0.52,0.77-0.52,1.28V26.82z"/>
	<path class="st1" d="M245.39,33.43c-0.51,0-0.97-0.08-1.38-0.24c-0.41-0.16-0.76-0.38-1.05-0.66c-0.29-0.28-0.52-0.62-0.68-1
		s-0.25-0.79-0.25-1.24v-5.38c0-0.45,0.08-0.86,0.25-1.24s0.39-0.71,0.68-1c0.29-0.28,0.64-0.5,1.05-0.66
		c0.41-0.16,0.87-0.23,1.38-0.23h4.59v-4.26h1.57V33.2h-1.01l-0.22-1.57h-0.11c-0.18,0.33-0.41,0.63-0.69,0.9
		c-0.24,0.24-0.53,0.45-0.87,0.63s-0.75,0.27-1.23,0.27H245.39z M247.41,32.08c0.42,0,0.79-0.1,1.11-0.31s0.59-0.44,0.82-0.69
		c0.25-0.3,0.47-0.63,0.65-1.01v-6.94h-4.59c-0.51,0-0.93,0.17-1.28,0.52c-0.34,0.34-0.52,0.77-0.52,1.28v5.38
		c0,0.51,0.17,0.93,0.52,1.28c0.34,0.34,0.77,0.52,1.28,0.52H247.41z"/>
	<path class="st1" d="M262.08,21.78h4.59c0.51,0,0.97,0.08,1.38,0.23c0.41,0.16,0.76,0.38,1.05,0.66c0.29,0.28,0.52,0.62,0.68,1
		s0.25,0.8,0.25,1.24v5.15c0,0.45-0.08,0.86-0.25,1.24c-0.16,0.38-0.39,0.71-0.68,1c-0.29,0.28-0.64,0.5-1.05,0.66
		c-0.41,0.16-0.87,0.24-1.38,0.24h-6.16V17.52h1.57V21.78z M262.08,23.12v8.74h4.59c0.51,0,0.93-0.17,1.28-0.52
		c0.34-0.34,0.52-0.77,0.52-1.28v-5.15c0-0.51-0.17-0.93-0.52-1.28c-0.34-0.34-0.77-0.52-1.28-0.52H262.08z"/>
	<path class="st1" d="M277.98,33.2c-0.51,1.34-1.07,2.31-1.69,2.91c-0.62,0.6-1.44,0.9-2.45,0.9h-0.56v-1.34h0.56
		c1.09,0,1.91-0.82,2.46-2.46l-4.26-10.75v-0.67h1.57l3.47,9.63h0.11l3.25-9.63h1.57v0.67L277.98,33.2z"/>
</g>
</svg>
