<svg width="756" height="377" viewBox="0 0 756 377" fill="none" xmlns="http://www.w3.org/2000/svg">
<path d="M96.1049 228.573C103.555 213.683 109.595 199.183 114.495 185.453C210.245 144.133 271.725 90.6726 275.005 87.7926L258.105 68.5726C257.385 69.1926 205.755 114.093 124.585 152.653C135.535 110.423 135.555 80.6926 135.535 78.0726L109.935 78.3026C109.935 78.9926 109.915 116.033 93.6549 166.363C69.9749 176.123 44.3449 184.973 17.1749 191.933L12.3449 193.183V214.983L15.8249 216.303C16.2949 216.493 34.4549 223.503 61.4649 238.373C46.3649 264.233 26.5249 290.743 0.504883 315.793L18.2649 334.233C46.2449 307.293 67.5549 278.943 83.7749 251.323C125.925 277.093 180.305 317.833 224.705 376.043L245.055 360.513C197.575 298.253 140.355 255.433 96.1149 228.583L96.1049 228.573ZM57.2249 207.003C65.5049 204.353 73.6149 201.543 81.5249 198.633C79.1149 204.223 76.5049 209.893 73.6849 215.643C67.7749 212.413 62.2649 209.533 57.2249 207.003Z" fill="white"/>
<path d="M144.155 25.4126C144.155 39.0626 133.085 50.1426 119.425 50.1426C105.765 50.1426 94.6949 39.0726 94.6949 25.4126C94.6949 11.7526 105.765 0.682617 119.425 0.682617C133.085 0.682617 144.155 11.7526 144.155 25.4126Z" fill="white"/>
<path d="M281.155 220.963H297.975L316.145 181.933H333.645V189.333L312.105 228.363L334.985 268.743V276.143H317.485L297.975 235.763H281.155V276.143H263.655V181.933H281.155V220.963Z" fill="white"/>
<path d="M392.175 276.143L390.155 268.063H388.805C387.735 269.863 386.435 271.433 384.905 272.773C383.465 274.023 381.805 275.123 379.925 276.073C378.045 277.013 375.845 277.483 373.335 277.483H362.565C359.695 277.483 357.075 277.003 354.695 276.073C352.315 275.123 350.255 273.823 348.505 272.173C346.755 270.513 345.415 268.583 344.465 266.383C343.525 264.173 343.055 261.823 343.055 259.313V251.903C343.055 249.393 343.525 247.033 344.465 244.843C345.405 242.643 346.755 240.713 348.505 239.043C350.255 237.393 352.325 236.093 354.695 235.143C357.075 234.203 359.695 233.733 362.565 233.733H386.795V229.013C386.795 224.083 384.325 221.613 379.385 221.613H349.105V207.473H384.095C386.965 207.473 389.585 207.943 391.965 208.893C394.345 209.833 396.405 211.133 398.155 212.793C399.905 214.443 401.245 216.373 402.195 218.583C403.135 220.783 403.605 223.143 403.605 225.653V276.123H392.165L392.175 276.143ZM380.865 262.213C382.215 261.453 383.335 260.573 384.225 259.583C385.215 258.503 386.065 257.293 386.785 255.953V247.873H366.595C364.535 247.873 362.895 248.483 361.685 249.693C360.475 250.903 359.865 252.543 359.865 254.603V256.623C359.865 258.693 360.465 260.323 361.685 261.543C362.895 262.753 364.535 263.363 366.595 263.363H376.015C377.895 263.363 379.515 262.983 380.865 262.213Z" fill="white"/>
<path d="M451.385 249.893L432.545 246.533C430.565 246.173 428.645 245.473 426.755 244.443C424.875 243.413 423.215 242.093 421.775 240.473C420.345 238.853 419.195 237.023 418.345 234.953C417.495 232.883 417.065 230.683 417.065 228.353V225.663C417.065 223.153 417.535 220.793 418.475 218.593C419.415 216.393 420.765 214.463 422.515 212.803C424.265 211.143 426.325 209.843 428.705 208.903C431.085 207.953 433.705 207.483 436.575 207.483H470.895V217.583L466.855 221.623H440.605C438.545 221.623 436.905 222.183 435.695 223.303C434.485 224.423 433.875 225.653 433.875 227.003C433.875 228.983 434.255 230.503 435.015 231.583C435.775 232.663 437.195 233.383 439.255 233.743L458.775 237.103C462.815 237.823 466.295 239.723 469.205 242.823C472.125 245.923 473.575 249.843 473.575 254.603V257.973C473.575 260.483 473.105 262.853 472.165 265.043C471.225 267.243 469.875 269.173 468.125 270.833C466.375 272.493 464.315 273.793 461.935 274.733C459.555 275.673 456.935 276.143 454.055 276.143H416.375V262.013H450.695C454.735 262.013 456.755 259.993 456.755 255.963C456.755 252.463 454.955 250.443 451.365 249.903L451.385 249.893Z" fill="white"/>
<path d="M483.665 207.493H493.765L500.495 187.973H510.595V207.493H527.425V221.633H510.595V255.283C510.595 257.343 511.245 258.983 512.545 260.193C513.845 261.403 515.665 262.013 517.995 262.013H531.455V276.143H513.285C510.415 276.143 507.795 275.673 505.415 274.733C503.035 273.793 500.975 272.493 499.225 270.833C497.475 269.173 496.125 267.233 495.185 265.043C494.245 262.853 493.775 260.493 493.775 257.973V221.633H483.675V207.493H483.665Z" fill="white"/>
<path d="M544.965 217.253C545.905 215.063 547.255 213.133 549.005 211.463C550.755 209.803 552.815 208.503 555.195 207.563C557.575 206.623 560.195 206.153 563.075 206.153H585.955C588.825 206.153 591.455 206.623 593.825 207.563C596.205 208.503 598.265 209.803 600.015 211.463C601.765 213.123 603.115 215.063 604.055 217.253C604.995 219.453 605.465 221.813 605.465 224.323V259.323C605.465 261.833 604.995 264.183 604.055 266.393C603.115 268.593 601.765 270.513 600.015 272.183C598.265 273.833 596.195 275.133 593.825 276.083C591.445 277.023 588.825 277.493 585.955 277.493H563.075C560.205 277.493 557.575 277.013 555.195 276.083C552.825 275.133 550.755 273.833 549.005 272.183C547.255 270.523 545.905 268.593 544.965 266.393C544.025 264.183 543.555 261.833 543.555 259.323V224.323C543.555 221.813 544.025 219.443 544.965 217.253ZM588.635 227.013C588.635 224.953 587.985 223.313 586.685 222.103C585.385 220.893 583.565 220.283 581.235 220.283H567.775C565.445 220.283 563.625 220.893 562.325 222.103C561.025 223.313 560.375 224.953 560.375 227.013V256.623C560.375 258.693 561.025 260.323 562.325 261.543C563.625 262.753 565.445 263.363 567.775 263.363H581.235C583.565 263.363 585.385 262.753 586.685 261.543C587.985 260.333 588.635 258.693 588.635 256.623V227.013Z" fill="white"/>
<path d="M702.355 206.153C705.225 206.153 707.855 206.623 710.235 207.563C712.615 208.503 714.675 209.803 716.425 211.463C718.175 213.123 719.525 215.063 720.465 217.253C721.405 219.453 721.875 221.813 721.875 224.323V276.143H705.045V227.013C705.045 224.953 704.395 223.313 703.095 222.103C701.795 220.893 699.975 220.283 697.645 220.283H686.875C684.545 220.283 682.725 220.893 681.425 222.103C680.125 223.313 679.475 224.953 679.475 227.013V276.143H662.655V227.013C662.655 224.953 662.005 223.313 660.705 222.103C659.405 220.893 657.585 220.283 655.255 220.283H647.855C645.965 220.283 644.355 220.663 643.005 221.423C641.655 222.183 640.535 223.023 639.635 223.913C638.645 225.083 637.795 226.333 637.075 227.683V276.133H620.255V207.483H631.695L633.715 215.563H635.065C636.145 213.773 637.435 212.203 638.965 210.853C640.395 209.593 642.065 208.493 643.945 207.553C645.825 206.613 648.025 206.143 650.535 206.143H657.265C660.495 206.143 663.185 206.583 665.345 207.483C667.495 208.383 669.205 209.373 670.455 210.453C671.985 211.793 673.195 213.273 674.095 214.893H674.765C675.665 213.273 676.875 211.793 678.405 210.453C679.745 209.283 681.475 208.273 683.585 207.423C685.695 206.573 688.365 206.143 691.595 206.143H702.365L702.355 206.153Z" fill="white"/>
<path d="M755.495 198.753H738.675V179.903H755.495V198.753ZM755.495 276.143H738.675V207.493H755.495V276.143Z" fill="white"/>
<path d="M509.293 75.8047V107.299H506.363V70.7266H509.098L509.293 75.8047ZM527.652 83.6905V84.2032C527.652 86.1726 527.424 87.9792 526.969 89.6231C526.513 91.267 525.854 92.6911 524.991 93.8956C524.145 95.0837 523.095 96.0033 521.842 96.6544C520.588 97.3054 519.164 97.6309 517.569 97.6309C515.99 97.6309 514.583 97.3868 513.346 96.8985C512.109 96.4102 511.043 95.7185 510.147 94.8233C509.268 93.9118 508.56 92.8539 508.023 91.6495C507.502 90.4288 507.136 89.0941 506.925 87.6456V80.8829C507.169 79.2878 507.568 77.8393 508.121 76.5372C508.674 75.2351 509.382 74.112 510.245 73.168C511.124 72.224 512.166 71.4997 513.37 70.9952C514.574 70.4906 515.95 70.2383 517.496 70.2383C519.107 70.2383 520.54 70.5557 521.793 71.1905C523.062 71.809 524.128 72.7123 524.991 73.9005C525.87 75.0723 526.529 76.4883 526.969 78.1485C527.424 79.7924 527.652 81.6397 527.652 83.6905ZM524.723 84.2032V83.6905C524.723 82.1443 524.56 80.712 524.234 79.3936C523.925 78.0753 523.445 76.9278 522.794 75.9512C522.159 74.9584 521.345 74.1853 520.352 73.6319C519.376 73.0785 518.212 72.8018 516.861 72.8018C515.461 72.8018 514.265 73.0378 513.272 73.5098C512.296 73.9656 511.482 74.5759 510.831 75.3409C510.18 76.0896 509.667 76.9115 509.293 77.8067C508.918 78.7019 508.642 79.5808 508.463 80.4434V88.2315C508.772 89.4685 509.268 90.6159 509.952 91.6739C510.636 92.7156 511.547 93.5538 512.686 94.1885C513.842 94.807 515.25 95.1163 516.91 95.1163C518.245 95.1163 519.4 94.8396 520.377 94.2862C521.353 93.7328 522.159 92.9597 522.794 91.9669C523.445 90.974 523.925 89.8184 524.234 88.5001C524.56 87.1817 524.723 85.7494 524.723 84.2032ZM532.535 84.3497V83.544C532.535 81.6234 532.812 79.8493 533.365 78.2217C533.918 76.5941 534.708 75.1863 535.733 73.9981C536.775 72.81 538.02 71.8904 539.469 71.2393C540.917 70.572 542.529 70.2383 544.303 70.2383C546.093 70.2383 547.712 70.572 549.161 71.2393C550.61 71.8904 551.855 72.81 552.896 73.9981C553.938 75.1863 554.736 76.5941 555.289 78.2217C555.842 79.8493 556.119 81.6234 556.119 83.544V84.3497C556.119 86.2702 555.842 88.0443 555.289 89.6719C554.736 91.2833 553.938 92.683 552.896 93.8712C551.871 95.0593 550.634 95.987 549.185 96.6544C547.737 97.3054 546.126 97.6309 544.351 97.6309C542.561 97.6309 540.942 97.3054 539.493 96.6544C538.044 95.987 536.799 95.0593 535.758 93.8712C534.716 92.683 533.918 91.2833 533.365 89.6719C532.812 88.0443 532.535 86.2702 532.535 84.3497ZM535.44 83.544V84.3497C535.44 85.7982 535.636 87.1736 536.026 88.4756C536.417 89.7615 536.987 90.9089 537.735 91.918C538.484 92.9109 539.412 93.6921 540.518 94.2618C541.625 94.8314 542.903 95.1163 544.351 95.1163C545.784 95.1163 547.045 94.8314 548.136 94.2618C549.242 93.6921 550.17 92.9109 550.919 91.918C551.668 90.9089 552.229 89.7615 552.603 88.4756C552.994 87.1736 553.189 85.7982 553.189 84.3497V83.544C553.189 82.1117 552.994 80.7527 552.603 79.4669C552.229 78.1811 551.659 77.0336 550.894 76.0245C550.146 75.0154 549.218 74.2178 548.111 73.6319C547.004 73.046 545.735 72.753 544.303 72.753C542.87 72.753 541.601 73.046 540.494 73.6319C539.404 74.2178 538.476 75.0154 537.711 76.0245C536.962 77.0336 536.392 78.1811 536.002 79.4669C535.627 80.7527 535.44 82.1117 535.44 83.544ZM569.498 90.9659L575.87 70.7266H577.921L576.7 76.171L570.035 97.1426H567.984L569.498 90.9659ZM562.882 70.7266L568.473 91.088L569.669 97.1426H567.545L559.879 70.7266H562.882ZM585.855 91.0147L591.3 70.7266H594.303L586.637 97.1426H584.537L585.855 91.0147ZM578.336 70.7266L584.61 90.795L586.197 97.1426H584.146L577.335 76.1465L576.187 70.7266H578.336ZM610.123 97.6309C608.398 97.6309 606.811 97.3135 605.362 96.6788C603.93 96.044 602.677 95.1488 601.602 93.9932C600.544 92.8376 599.723 91.4704 599.137 89.8917C598.567 88.2966 598.282 86.5551 598.282 84.6671V83.6172C598.282 81.5827 598.583 79.7436 599.185 78.0997C599.788 76.4558 600.618 75.0479 601.676 73.876C602.734 72.7042 603.938 71.809 605.289 71.1905C606.656 70.5557 608.088 70.2383 609.586 70.2383C611.262 70.2383 612.752 70.5394 614.054 71.1417C615.356 71.7276 616.446 72.5658 617.325 73.6563C618.22 74.7305 618.896 76.0082 619.351 77.4893C619.807 78.9542 620.035 80.5736 620.035 82.3477V84.1299H600.04V81.6397H617.13V81.2979C617.097 79.8168 616.796 78.4333 616.226 77.1475C615.673 75.8454 614.843 74.7875 613.736 73.9737C612.629 73.1599 611.246 72.753 609.586 72.753C608.349 72.753 607.21 73.0134 606.168 73.5342C605.142 74.0551 604.255 74.8038 603.507 75.7803C602.774 76.7406 602.205 77.8881 601.798 79.2227C601.407 80.5411 601.212 82.0059 601.212 83.6172V84.6671C601.212 86.1319 601.423 87.4991 601.847 88.7686C602.286 90.0219 602.905 91.1286 603.702 92.0889C604.516 93.0492 605.476 93.7979 606.583 94.335C607.69 94.8721 608.91 95.1407 610.245 95.1407C611.807 95.1407 613.191 94.8559 614.395 94.2862C615.6 93.7003 616.682 92.7807 617.642 91.5274L619.474 92.9434C618.904 93.7898 618.188 94.571 617.325 95.2872C616.479 96.0033 615.461 96.573 614.273 96.9962C613.085 97.4193 611.702 97.6309 610.123 97.6309ZM628.702 75.0967V97.1426H625.797V70.7266H628.629L628.702 75.0967ZM638.053 70.5313L637.979 73.2169C637.654 73.168 637.336 73.1273 637.027 73.0948C636.718 73.0622 636.384 73.046 636.026 73.046C634.757 73.046 633.642 73.282 632.682 73.754C631.738 74.2097 630.94 74.8526 630.289 75.6827C629.638 76.4965 629.141 77.4568 628.8 78.5635C628.458 79.654 628.263 80.8259 628.214 82.0792L627.14 82.4942C627.14 80.7689 627.319 79.1658 627.677 77.6846C628.035 76.2035 628.58 74.9096 629.312 73.8028C630.061 72.6797 630.997 71.809 632.12 71.1905C633.259 70.5557 634.594 70.2383 636.124 70.2383C636.498 70.2383 636.864 70.2709 637.223 70.336C637.597 70.3848 637.874 70.4499 638.053 70.5313ZM652.359 97.6309C650.634 97.6309 649.047 97.3135 647.599 96.6788C646.166 96.044 644.913 95.1488 643.839 93.9932C642.781 92.8376 641.959 91.4704 641.373 89.8917C640.803 88.2966 640.518 86.5551 640.518 84.6671V83.6172C640.518 81.5827 640.82 79.7436 641.422 78.0997C642.024 76.4558 642.854 75.0479 643.912 73.876C644.97 72.7042 646.174 71.809 647.525 71.1905C648.892 70.5557 650.325 70.2383 651.822 70.2383C653.499 70.2383 654.988 70.5394 656.29 71.1417C657.592 71.7276 658.682 72.5658 659.561 73.6563C660.457 74.7305 661.132 76.0082 661.588 77.4893C662.043 78.9542 662.271 80.5736 662.271 82.3477V84.1299H642.276V81.6397H659.366V81.2979C659.334 79.8168 659.032 78.4333 658.463 77.1475C657.909 75.8454 657.079 74.7875 655.973 73.9737C654.866 73.1599 653.482 72.753 651.822 72.753C650.585 72.753 649.446 73.0134 648.404 73.5342C647.379 74.0551 646.492 74.8038 645.743 75.7803C645.011 76.7406 644.441 77.8881 644.034 79.2227C643.643 80.5411 643.448 82.0059 643.448 83.6172V84.6671C643.448 86.1319 643.66 87.4991 644.083 88.7686C644.522 90.0219 645.141 91.1286 645.938 92.0889C646.752 93.0492 647.712 93.7979 648.819 94.335C649.926 94.8721 651.147 95.1407 652.481 95.1407C654.044 95.1407 655.427 94.8559 656.632 94.2862C657.836 93.7003 658.918 92.7807 659.879 91.5274L661.71 92.9434C661.14 93.7898 660.424 94.571 659.561 95.2872C658.715 96.0033 657.698 96.573 656.51 96.9962C655.321 97.4193 653.938 97.6309 652.359 97.6309ZM685.196 92.0157V59.6426H688.126V97.1426H685.391L685.196 92.0157ZM666.861 84.2032V83.6905C666.861 81.6397 667.097 79.7924 667.569 78.1485C668.041 76.4883 668.717 75.0723 669.596 73.9005C670.491 72.7123 671.565 71.809 672.818 71.1905C674.071 70.5557 675.488 70.2383 677.066 70.2383C678.613 70.2383 679.98 70.4906 681.168 70.9952C682.356 71.4997 683.373 72.224 684.22 73.168C685.082 74.112 685.774 75.2351 686.295 76.5372C686.832 77.8393 687.223 79.2878 687.467 80.8829V87.4014C687.271 88.8988 686.913 90.2741 686.392 91.5274C685.872 92.7644 685.18 93.8467 684.317 94.7745C683.455 95.6859 682.413 96.3939 681.192 96.8985C679.988 97.3868 678.596 97.6309 677.017 97.6309C675.455 97.6309 674.047 97.3054 672.794 96.6544C671.541 96.0033 670.474 95.0837 669.596 93.8956C668.717 92.6911 668.041 91.267 667.569 89.6231C667.097 87.9792 666.861 86.1726 666.861 84.2032ZM669.791 83.6905V84.2032C669.791 85.7494 669.946 87.1817 670.255 88.5001C670.564 89.8184 671.036 90.9659 671.671 91.9424C672.306 92.919 673.111 93.684 674.088 94.2374C675.064 94.7908 676.22 95.0674 677.555 95.0674C679.231 95.0674 680.639 94.7501 681.778 94.1153C682.918 93.4643 683.829 92.6098 684.513 91.5518C685.196 90.4776 685.693 89.3057 686.002 88.0362V80.4434C685.807 79.5808 685.522 78.7019 685.147 77.8067C684.773 76.9115 684.26 76.0896 683.609 75.3409C682.974 74.5759 682.161 73.9656 681.168 73.5098C680.191 73.0378 679.003 72.8018 677.603 72.8018C676.252 72.8018 675.089 73.0785 674.112 73.6319C673.136 74.1853 672.322 74.9584 671.671 75.9512C671.036 76.9278 670.564 78.0753 670.255 79.3936C669.946 80.712 669.791 82.1443 669.791 83.6905ZM707.974 59.6426H710.904V92.0157L710.709 97.1426H707.974V59.6426ZM729.288 83.6905V84.2032C729.288 86.1726 729.06 87.9792 728.604 89.6231C728.149 91.267 727.489 92.6911 726.627 93.8956C725.764 95.0837 724.706 96.0033 723.453 96.6544C722.216 97.3054 720.792 97.6309 719.181 97.6309C717.602 97.6309 716.202 97.3868 714.981 96.8985C713.761 96.3939 712.719 95.6859 711.856 94.7745C710.994 93.8467 710.302 92.7644 709.781 91.5274C709.26 90.2741 708.894 88.8988 708.682 87.4014V80.8829C708.927 79.2878 709.317 77.8393 709.854 76.5372C710.391 75.2351 711.083 74.112 711.93 73.168C712.792 72.224 713.818 71.4997 715.006 70.9952C716.21 70.4906 717.585 70.2383 719.132 70.2383C720.743 70.2383 722.175 70.5557 723.429 71.1905C724.698 71.809 725.764 72.7123 726.627 73.9005C727.489 75.0723 728.149 76.4883 728.604 78.1485C729.06 79.7924 729.288 81.6397 729.288 83.6905ZM726.334 84.2032V83.6905C726.334 82.1443 726.187 80.712 725.894 79.3936C725.601 78.0753 725.138 76.9278 724.503 75.9512C723.884 74.9584 723.087 74.1853 722.11 73.6319C721.134 73.0785 719.962 72.8018 718.595 72.8018C717.195 72.8018 715.999 73.0378 715.006 73.5098C714.029 73.9656 713.215 74.5759 712.564 75.3409C711.93 76.0896 711.425 76.9115 711.051 77.8067C710.676 78.7019 710.4 79.5808 710.221 80.4434V88.0362C710.497 89.2569 710.977 90.4044 711.661 91.4786C712.345 92.5528 713.264 93.4236 714.42 94.0909C715.575 94.7419 716.983 95.0674 718.643 95.0674C719.978 95.0674 721.126 94.7908 722.086 94.2374C723.062 93.684 723.86 92.919 724.478 91.9424C725.113 90.9659 725.577 89.8184 725.87 88.5001C726.179 87.1817 726.334 85.7494 726.334 84.2032ZM743.302 94.5059L751.529 70.7266H754.679L743.497 101.391C743.269 101.993 742.976 102.66 742.618 103.393C742.276 104.125 741.821 104.825 741.251 105.492C740.697 106.176 739.998 106.729 739.151 107.152C738.321 107.592 737.304 107.812 736.099 107.812C735.79 107.812 735.391 107.771 734.903 107.69C734.431 107.624 734.089 107.559 733.878 107.494L733.853 105.028C734.032 105.077 734.293 105.118 734.635 105.15C734.976 105.183 735.212 105.199 735.343 105.199C736.401 105.199 737.288 105.02 738.004 104.662C738.736 104.304 739.347 103.767 739.835 103.051C740.323 102.351 740.754 101.472 741.129 100.414L743.302 94.5059ZM735.611 70.7266L744.034 93.4073L744.815 96.459L742.691 97.6553L732.437 70.7266H735.611Z" fill="white"/>
</svg>
