<svg width="756" height="376" viewBox="0 0 756 376" fill="none" xmlns="http://www.w3.org/2000/svg">
<path d="M95.8814 227.921C103.331 213.031 109.371 198.531 114.271 184.801C189.509 152.333 243.587 112.369 264.896 95.3389C270.446 90.9031 270.976 82.8132 266.285 77.4776V77.4776C261.63 72.1835 253.571 71.6069 248.035 75.9718C229.351 90.704 185.136 123.129 124.361 152.001C131.342 125.077 133.881 103.235 134.799 90.2589C135.3 83.1733 129.548 77.4724 122.445 77.5363V77.5363C115.394 77.5996 109.633 83.3361 109.041 90.3626C107.77 105.438 104.09 132.719 93.4314 165.711C69.7514 175.471 55.4066 181.952 28.2366 188.912L24.8943 189.662C17.4275 191.339 12.1214 197.969 12.1214 205.622V205.622C12.1214 210.942 15.1798 215.789 19.9823 218.079L23.5601 219.785C24.0301 219.975 32.9303 223.837 61.2414 237.721C47.9461 260.49 30.976 283.763 9.34838 306.1C4.43002 311.18 4.2581 319.27 9.16298 324.362V324.362C14.0666 329.454 22.1871 329.619 27.1191 324.555C50.692 300.353 69.1328 275.223 83.5514 250.671C123.228 274.929 173.742 312.451 216.567 365.324C221.017 370.818 229.039 371.913 234.659 367.623V367.623C240.278 363.336 241.368 355.29 236.932 349.788C191.112 292.95 137.704 253.308 95.8914 227.931L95.8814 227.921ZM57.0014 206.351C65.2814 203.701 73.3914 200.891 81.3014 197.981C78.8914 203.571 76.2814 209.241 73.4614 214.991C67.5514 211.761 62.0414 208.881 57.0014 206.351Z" fill="black"/>
<path d="M143.931 24.7606C143.931 38.4106 132.861 49.4906 119.201 49.4906C105.541 49.4906 94.4713 38.4206 94.4713 24.7606C94.4713 11.1006 105.541 0.0306396 119.201 0.0306396C132.861 0.0306396 143.931 11.1006 143.931 24.7606Z" fill="black"/>
<path d="M280.931 220.311H297.751L315.921 181.281H333.421V188.681L311.881 227.711L334.761 268.091V275.491H317.261L297.751 235.111H280.931V275.491H263.431V181.281H280.931V220.311Z" fill="black" stroke="#1D1E1B" stroke-miterlimit="10"/>
<path d="M391.951 275.491L389.931 267.411H388.581C387.511 269.211 386.211 270.781 384.681 272.121C383.241 273.371 381.581 274.471 379.701 275.421C377.821 276.361 375.621 276.831 373.111 276.831H362.341C359.471 276.831 356.851 276.351 354.471 275.421C352.091 274.471 350.031 273.171 348.281 271.521C346.531 269.861 345.191 267.931 344.241 265.731C343.301 263.521 342.831 261.171 342.831 258.661V251.251C342.831 248.741 343.301 246.381 344.241 244.191C345.181 241.991 346.531 240.061 348.281 238.391C350.031 236.741 352.101 235.441 354.471 234.491C356.851 233.551 359.471 233.081 362.341 233.081H386.571V228.361C386.571 223.431 384.101 220.961 379.161 220.961H348.881V206.821H383.871C386.741 206.821 389.361 207.291 391.741 208.241C394.121 209.181 396.181 210.481 397.931 212.141C399.681 213.791 401.021 215.721 401.971 217.931C402.911 220.131 403.381 222.491 403.381 225.001V275.471H391.941L391.951 275.491ZM380.641 261.561C381.991 260.801 383.111 259.921 384.001 258.931C384.991 257.851 385.841 256.641 386.561 255.301V247.221H366.371C364.311 247.221 362.671 247.831 361.461 249.041C360.251 250.251 359.641 251.891 359.641 253.951V255.971C359.641 258.041 360.241 259.671 361.461 260.891C362.671 262.101 364.311 262.711 366.371 262.711H375.791C377.671 262.711 379.291 262.331 380.641 261.561Z" fill="black" stroke="#1D1E1B" stroke-miterlimit="10"/>
<path d="M451.161 249.241L432.321 245.881C430.341 245.521 428.421 244.821 426.531 243.791C424.651 242.761 422.991 241.441 421.551 239.821C420.121 238.201 418.971 236.371 418.121 234.301C417.271 232.231 416.841 230.031 416.841 227.701V225.011C416.841 222.501 417.311 220.141 418.251 217.941C419.191 215.741 420.541 213.811 422.291 212.151C424.041 210.491 426.101 209.191 428.481 208.251C430.861 207.301 433.481 206.831 436.351 206.831H470.671V216.931L466.631 220.971H440.381C438.321 220.971 436.681 221.531 435.471 222.651C434.261 223.771 433.651 225.001 433.651 226.351C433.651 228.331 434.031 229.851 434.791 230.931C435.551 232.011 436.971 232.731 439.031 233.091L458.551 236.451C462.591 237.171 466.071 239.071 468.981 242.171C471.901 245.271 473.351 249.191 473.351 253.951V257.321C473.351 259.831 472.881 262.201 471.941 264.391C471.001 266.591 469.651 268.521 467.901 270.181C466.151 271.841 464.091 273.141 461.711 274.081C459.331 275.021 456.711 275.491 453.831 275.491H416.151V261.361H450.471C454.511 261.361 456.531 259.341 456.531 255.311C456.531 251.811 454.731 249.791 451.141 249.251L451.161 249.241Z" fill="black" stroke="#1D1E1B" stroke-miterlimit="10"/>
<path d="M483.441 206.841H493.541L500.271 187.321H510.371V206.841H527.201V220.981H510.371V254.631C510.371 256.691 511.021 258.331 512.321 259.541C513.621 260.751 515.441 261.361 517.771 261.361H531.231V275.491H513.061C510.191 275.491 507.571 275.021 505.191 274.081C502.811 273.141 500.751 271.841 499.001 270.181C497.251 268.521 495.901 266.581 494.961 264.391C494.021 262.201 493.551 259.841 493.551 257.321V220.981H483.451V206.841H483.441Z" fill="black" stroke="#1D1E1B" stroke-miterlimit="10"/>
<path d="M544.741 216.601C545.681 214.411 547.031 212.481 548.781 210.811C550.531 209.151 552.591 207.851 554.971 206.911C557.351 205.971 559.971 205.501 562.851 205.501H585.731C588.601 205.501 591.231 205.971 593.601 206.911C595.981 207.851 598.041 209.151 599.791 210.811C601.541 212.471 602.891 214.411 603.831 216.601C604.771 218.801 605.241 221.161 605.241 223.671V258.671C605.241 261.181 604.771 263.531 603.831 265.741C602.891 267.941 601.541 269.861 599.791 271.531C598.041 273.181 595.971 274.481 593.601 275.431C591.221 276.371 588.601 276.841 585.731 276.841H562.851C559.981 276.841 557.351 276.361 554.971 275.431C552.601 274.481 550.531 273.181 548.781 271.531C547.031 269.871 545.681 267.941 544.741 265.741C543.801 263.531 543.331 261.181 543.331 258.671V223.671C543.331 221.161 543.801 218.791 544.741 216.601ZM588.411 226.361C588.411 224.301 587.761 222.661 586.461 221.451C585.161 220.241 583.341 219.631 581.011 219.631H567.551C565.221 219.631 563.401 220.241 562.101 221.451C560.801 222.661 560.151 224.301 560.151 226.361V255.971C560.151 258.041 560.801 259.671 562.101 260.891C563.401 262.101 565.221 262.711 567.551 262.711H581.011C583.341 262.711 585.161 262.101 586.461 260.891C587.761 259.681 588.411 258.041 588.411 255.971V226.361Z" fill="black" stroke="#1D1E1B" stroke-miterlimit="10"/>
<path d="M702.131 205.501C705.001 205.501 707.631 205.971 710.011 206.911C712.391 207.851 714.451 209.151 716.201 210.811C717.951 212.471 719.301 214.411 720.241 216.601C721.181 218.801 721.651 221.161 721.651 223.671V275.491H704.821V226.361C704.821 224.301 704.171 222.661 702.871 221.451C701.571 220.241 699.751 219.631 697.421 219.631H686.651C684.321 219.631 682.501 220.241 681.201 221.451C679.901 222.661 679.251 224.301 679.251 226.361V275.491H662.431V226.361C662.431 224.301 661.781 222.661 660.481 221.451C659.181 220.241 657.361 219.631 655.031 219.631H647.631C645.741 219.631 644.131 220.011 642.781 220.771C641.431 221.531 640.311 222.371 639.411 223.261C638.421 224.431 637.571 225.681 636.851 227.031V275.481H620.031V206.831H631.471L633.491 214.911H634.841C635.921 213.121 637.211 211.551 638.741 210.201C640.171 208.941 641.841 207.841 643.721 206.901C645.601 205.961 647.801 205.491 650.311 205.491H657.041C660.271 205.491 662.961 205.931 665.121 206.831C667.271 207.731 668.981 208.721 670.231 209.801C671.761 211.141 672.971 212.621 673.871 214.241H674.541C675.441 212.621 676.651 211.141 678.181 209.801C679.521 208.631 681.251 207.621 683.361 206.771C685.471 205.921 688.141 205.491 691.371 205.491H702.141L702.131 205.501Z" fill="black" stroke="#1D1E1B" stroke-miterlimit="10"/>
<path d="M755.271 198.101H738.451V179.251H755.271V198.101ZM755.271 275.491H738.451V206.841H755.271V275.491Z" fill="black" stroke="#1D1E1B" stroke-miterlimit="10"/>
</svg>
