<svg width="506" height="578" viewBox="0 0 506 578" fill="none" xmlns="http://www.w3.org/2000/svg">
<path d="M55.632 175.125C-21.8311 258.242 -17.4298 388.701 65.6896 466.166C148.808 543.631 279.748 539.307 357.211 456.19C425.654 382.751 429.211 271.511 373.046 194.334L434.709 128.17L438.507 162.881L505.685 154.645L488.384 10.6727L341.342 0.979492L337.267 69.0367L376.681 71.9444L313.511 139.724C231.685 90.0863 123.266 102.554 55.632 175.125ZM297.623 400.656C250.529 451.188 171.102 453.984 120.569 406.888C70.0352 359.792 67.2385 280.365 114.333 229.833C161.428 179.3 240.855 176.503 291.389 223.6C341.923 270.696 344.719 350.123 297.623 400.656Z" fill="black"/>
</svg>
