<svg width="17" height="21" viewBox="0 0 17 21" fill="none" xmlns="http://www.w3.org/2000/svg">
<path fill-rule="evenodd" clip-rule="evenodd" d="M1.27148 18.5029H15.2715C15.5367 18.5029 15.7911 18.6083 15.9786 18.7958C16.1661 18.9834 16.2715 19.2377 16.2715 19.5029C16.2715 19.7681 16.1661 20.0225 15.9786 20.21C15.7911 20.3976 15.5367 20.5029 15.2715 20.5029H1.27148C1.00627 20.5029 0.751914 20.3976 0.564378 20.21C0.376841 20.0225 0.271484 19.7681 0.271484 19.5029C0.271484 19.2377 0.376841 18.9834 0.564378 18.7958C0.751914 18.6083 1.00627 18.5029 1.27148 18.5029ZM0.271484 13.5029L10.2715 3.50293L13.2715 6.50293L3.27148 16.5029H0.271484V13.5029ZM11.2715 2.50293L13.2715 0.50293L16.2715 3.50293L14.2705 5.50393L11.2715 2.50293Z" fill="black"/>
</svg>
