<svg width="1056" height="376" viewBox="0 0 1056 376" fill="none" xmlns="http://www.w3.org/2000/svg">
<path d="M395.801 228.218C403.251 213.328 409.291 198.828 414.191 185.098C509.941 143.778 571.421 90.3176 574.701 87.4376L557.801 68.2176C557.081 68.8376 505.451 113.738 424.281 152.298C435.231 110.068 435.251 80.3376 435.231 77.7176L409.631 77.9476C409.631 78.6376 409.611 115.678 393.351 166.008C369.671 175.768 344.041 184.618 316.871 191.578L312.041 192.828V214.628L315.521 215.948C315.991 216.138 334.151 223.148 361.161 238.018C346.061 263.878 326.221 290.388 300.201 315.438L317.961 333.878C345.941 306.938 367.251 278.588 383.471 250.968C425.621 276.738 480.001 317.478 524.401 375.688L544.751 360.158C497.271 297.898 440.051 255.078 395.811 228.228L395.801 228.218ZM356.921 206.648C365.201 203.998 373.311 201.188 381.221 198.278C378.811 203.868 376.201 209.538 373.381 215.288C367.471 212.058 361.961 209.178 356.921 206.648Z" fill="black"/>
<path d="M443.851 25.0576C443.851 38.7076 432.781 49.7876 419.121 49.7876C405.461 49.7876 394.391 38.7176 394.391 25.0576C394.391 11.3976 405.461 0.327576 419.121 0.327576C432.781 0.327576 443.851 11.3976 443.851 25.0576Z" fill="black"/>
<path d="M580.851 220.608H597.671L615.841 181.578H633.341V188.978L611.801 228.008L634.681 268.388V275.788H617.181L597.671 235.408H580.851V275.788H563.351V181.578H580.851V220.608Z" fill="black" stroke="#1D1E1B" stroke-miterlimit="10"/>
<path d="M691.871 275.788L689.851 267.708H688.501C687.431 269.508 686.131 271.078 684.601 272.418C683.161 273.668 681.501 274.768 679.621 275.718C677.741 276.658 675.541 277.128 673.031 277.128H662.261C659.391 277.128 656.771 276.648 654.391 275.718C652.011 274.768 649.951 273.468 648.201 271.818C646.451 270.158 645.111 268.228 644.161 266.028C643.221 263.818 642.751 261.468 642.751 258.958V251.548C642.751 249.038 643.221 246.678 644.161 244.488C645.101 242.288 646.451 240.358 648.201 238.688C649.951 237.038 652.021 235.738 654.391 234.788C656.771 233.848 659.391 233.378 662.261 233.378H686.491V228.658C686.491 223.728 684.021 221.258 679.081 221.258H648.801V207.118H683.791C686.661 207.118 689.281 207.588 691.661 208.538C694.041 209.478 696.101 210.778 697.851 212.438C699.601 214.088 700.941 216.018 701.891 218.228C702.831 220.428 703.301 222.788 703.301 225.298V275.768H691.861L691.871 275.788ZM680.561 261.858C681.911 261.098 683.031 260.218 683.921 259.228C684.911 258.148 685.761 256.938 686.481 255.598V247.518H666.291C664.231 247.518 662.591 248.128 661.381 249.338C660.171 250.548 659.561 252.188 659.561 254.248V256.268C659.561 258.338 660.161 259.968 661.381 261.188C662.591 262.398 664.231 263.008 666.291 263.008H675.711C677.591 263.008 679.211 262.628 680.561 261.858Z" fill="black" stroke="#1D1E1B" stroke-miterlimit="10"/>
<path d="M751.081 249.538L732.241 246.178C730.261 245.818 728.341 245.118 726.451 244.088C724.571 243.058 722.911 241.738 721.471 240.118C720.041 238.498 718.891 236.668 718.041 234.598C717.191 232.528 716.761 230.328 716.761 227.998V225.308C716.761 222.798 717.231 220.438 718.171 218.238C719.111 216.038 720.461 214.108 722.211 212.448C723.961 210.788 726.021 209.488 728.401 208.548C730.781 207.598 733.401 207.128 736.271 207.128H770.591V217.228L766.551 221.268H740.301C738.241 221.268 736.601 221.828 735.391 222.948C734.181 224.068 733.571 225.298 733.571 226.648C733.571 228.628 733.951 230.148 734.711 231.228C735.471 232.308 736.891 233.028 738.951 233.388L758.471 236.748C762.511 237.468 765.991 239.368 768.901 242.468C771.821 245.568 773.271 249.488 773.271 254.248V257.618C773.271 260.128 772.801 262.498 771.861 264.688C770.921 266.888 769.571 268.818 767.821 270.478C766.071 272.138 764.011 273.438 761.631 274.378C759.251 275.318 756.631 275.788 753.751 275.788H716.071V261.658H750.391C754.431 261.658 756.451 259.638 756.451 255.608C756.451 252.108 754.651 250.088 751.061 249.548L751.081 249.538Z" fill="black" stroke="#1D1E1B" stroke-miterlimit="10"/>
<path d="M783.361 207.138H793.461L800.191 187.618H810.291V207.138H827.121V221.278H810.291V254.928C810.291 256.988 810.941 258.628 812.241 259.838C813.541 261.048 815.361 261.658 817.691 261.658H831.151V275.788H812.981C810.111 275.788 807.491 275.318 805.111 274.378C802.731 273.438 800.671 272.138 798.921 270.478C797.171 268.818 795.821 266.878 794.881 264.688C793.941 262.498 793.471 260.138 793.471 257.618V221.278H783.371V207.138H783.361Z" fill="black" stroke="#1D1E1B" stroke-miterlimit="10"/>
<path d="M844.661 216.898C845.601 214.708 846.951 212.778 848.701 211.108C850.451 209.448 852.511 208.148 854.891 207.208C857.271 206.268 859.891 205.798 862.771 205.798H885.651C888.521 205.798 891.151 206.268 893.521 207.208C895.901 208.148 897.961 209.448 899.711 211.108C901.461 212.768 902.811 214.708 903.751 216.898C904.691 219.098 905.161 221.458 905.161 223.968V258.968C905.161 261.478 904.691 263.828 903.751 266.038C902.811 268.238 901.461 270.158 899.711 271.828C897.961 273.478 895.891 274.778 893.521 275.728C891.141 276.668 888.521 277.138 885.651 277.138H862.771C859.901 277.138 857.271 276.658 854.891 275.728C852.521 274.778 850.451 273.478 848.701 271.828C846.951 270.168 845.601 268.238 844.661 266.038C843.721 263.828 843.251 261.478 843.251 258.968V223.968C843.251 221.458 843.721 219.088 844.661 216.898ZM888.331 226.658C888.331 224.598 887.681 222.958 886.381 221.748C885.081 220.538 883.261 219.928 880.931 219.928H867.471C865.141 219.928 863.321 220.538 862.021 221.748C860.721 222.958 860.071 224.598 860.071 226.658V256.268C860.071 258.338 860.721 259.968 862.021 261.188C863.321 262.398 865.141 263.008 867.471 263.008H880.931C883.261 263.008 885.081 262.398 886.381 261.188C887.681 259.978 888.331 258.338 888.331 256.268V226.658Z" fill="black" stroke="#1D1E1B" stroke-miterlimit="10"/>
<path d="M1002.05 205.798C1004.92 205.798 1007.55 206.268 1009.93 207.208C1012.31 208.148 1014.37 209.448 1016.12 211.108C1017.87 212.768 1019.22 214.708 1020.16 216.898C1021.1 219.098 1021.57 221.458 1021.57 223.968V275.788H1004.74V226.658C1004.74 224.598 1004.09 222.958 1002.79 221.748C1001.49 220.538 999.671 219.928 997.341 219.928H986.571C984.241 219.928 982.421 220.538 981.121 221.748C979.821 222.958 979.171 224.598 979.171 226.658V275.788H962.351V226.658C962.351 224.598 961.701 222.958 960.401 221.748C959.101 220.538 957.281 219.928 954.951 219.928H947.551C945.661 219.928 944.051 220.308 942.701 221.068C941.351 221.828 940.231 222.668 939.331 223.558C938.341 224.728 937.491 225.978 936.771 227.328V275.778H919.951V207.128H931.391L933.411 215.208H934.761C935.841 213.418 937.131 211.848 938.661 210.498C940.091 209.238 941.761 208.138 943.641 207.198C945.521 206.258 947.721 205.788 950.231 205.788H956.961C960.191 205.788 962.881 206.228 965.041 207.128C967.191 208.028 968.901 209.018 970.151 210.098C971.681 211.438 972.891 212.918 973.791 214.538H974.461C975.361 212.918 976.571 211.438 978.101 210.098C979.441 208.928 981.171 207.918 983.281 207.068C985.391 206.218 988.061 205.788 991.291 205.788H1002.06L1002.05 205.798Z" fill="black" stroke="#1D1E1B" stroke-miterlimit="10"/>
<path d="M1055.19 198.398H1038.37V179.548H1055.19V198.398ZM1055.19 275.788H1038.37V207.138H1055.19V275.788Z" fill="black" stroke="#1D1E1B" stroke-miterlimit="10"/>
<path d="M7.60376 242.45V273.944H4.67407V237.371H7.40845L7.60376 242.45ZM25.9631 250.335V250.848C25.9631 252.817 25.7353 254.624 25.2795 256.268C24.8238 257.912 24.1646 259.336 23.302 260.54C22.4556 261.729 21.4058 262.648 20.1526 263.299C18.8993 263.95 17.4752 264.276 15.8801 264.276C14.3014 264.276 12.8935 264.032 11.6565 263.543C10.4195 263.055 9.35343 262.363 8.45825 261.468C7.57935 260.557 6.87134 259.499 6.33423 258.294C5.8134 257.074 5.44718 255.739 5.2356 254.29V247.528C5.47974 245.933 5.8785 244.484 6.43188 243.182C6.98527 241.88 7.69328 240.757 8.55591 239.813C9.43481 238.869 10.4765 238.145 11.6809 237.64C12.8853 237.135 14.2607 236.883 15.8069 236.883C17.4182 236.883 18.8505 237.201 20.1038 237.835C21.3733 238.454 22.4394 239.357 23.302 240.545C24.1809 241.717 24.8401 243.133 25.2795 244.793C25.7353 246.437 25.9631 248.285 25.9631 250.335ZM23.0334 250.848V250.335C23.0334 248.789 22.8707 247.357 22.5452 246.038C22.2359 244.72 21.7558 243.573 21.1047 242.596C20.47 241.603 19.6562 240.83 18.6633 240.277C17.6868 239.723 16.523 239.447 15.1721 239.447C13.7724 239.447 12.5761 239.683 11.5833 240.155C10.6067 240.61 9.79289 241.221 9.14185 241.986C8.4908 242.734 7.97811 243.556 7.60376 244.452C7.22941 245.347 6.95272 246.226 6.77368 247.088V254.876C7.08293 256.113 7.57935 257.261 8.26294 258.319C8.94653 259.36 9.85799 260.199 10.9973 260.833C12.1529 261.452 13.5608 261.761 15.2209 261.761C16.5556 261.761 17.7112 261.484 18.6877 260.931C19.6643 260.378 20.47 259.605 21.1047 258.612C21.7558 257.619 22.2359 256.463 22.5452 255.145C22.8707 253.827 23.0334 252.394 23.0334 250.848ZM30.8459 250.995V250.189C30.8459 248.268 31.1226 246.494 31.676 244.867C32.2294 243.239 33.0188 241.831 34.0442 240.643C35.0859 239.455 36.331 238.535 37.7795 237.884C39.2281 237.217 40.8394 236.883 42.6135 236.883C44.4039 236.883 46.0234 237.217 47.4719 237.884C48.9205 238.535 50.1656 239.455 51.2073 240.643C52.2489 241.831 53.0465 243.239 53.5999 244.867C54.1532 246.494 54.4299 248.268 54.4299 250.189V250.995C54.4299 252.915 54.1532 254.689 53.5999 256.317C53.0465 257.928 52.2489 259.328 51.2073 260.516C50.1819 261.704 48.9449 262.632 47.4963 263.299C46.0478 263.95 44.4364 264.276 42.6624 264.276C40.872 264.276 39.2525 263.95 37.804 263.299C36.3554 262.632 35.1103 261.704 34.0686 260.516C33.0269 259.328 32.2294 257.928 31.676 256.317C31.1226 254.689 30.8459 252.915 30.8459 250.995ZM33.7512 250.189V250.995C33.7512 252.443 33.9465 253.818 34.3372 255.12C34.7278 256.406 35.2974 257.554 36.0461 258.563C36.7948 259.556 37.7226 260.337 38.8293 260.907C39.9361 261.476 41.2138 261.761 42.6624 261.761C44.0946 261.761 45.356 261.476 46.4465 260.907C47.5533 260.337 48.481 259.556 49.2297 258.563C49.9784 257.554 50.54 256.406 50.9143 255.12C51.3049 253.818 51.5002 252.443 51.5002 250.995V250.189C51.5002 248.757 51.3049 247.398 50.9143 246.112C50.54 244.826 49.9703 243.678 49.2053 242.669C48.4566 241.66 47.5289 240.863 46.4221 240.277C45.3153 239.691 44.0458 239.398 42.6135 239.398C41.1812 239.398 39.9117 239.691 38.8049 240.277C37.7144 240.863 36.7867 241.66 36.0217 242.669C35.273 243.678 34.7034 244.826 34.3127 246.112C33.9384 247.398 33.7512 248.757 33.7512 250.189ZM67.8088 257.611L74.1809 237.371H76.2317L75.011 242.816L68.3459 263.787H66.2952L67.8088 257.611ZM61.1926 237.371L66.7834 257.733L67.9797 263.787H65.8557L58.1897 237.371H61.1926ZM84.1663 257.66L89.6106 237.371H92.6135L84.9475 263.787H82.8479L84.1663 257.66ZM76.6467 237.371L82.9211 257.44L84.5081 263.787H82.4573L75.6458 242.791L74.4983 237.371H76.6467ZM108.434 264.276C106.709 264.276 105.122 263.958 103.673 263.324C102.241 262.689 100.988 261.794 99.9133 260.638C98.8554 259.482 98.0334 258.115 97.4475 256.536C96.8778 254.941 96.593 253.2 96.593 251.312V250.262C96.593 248.228 96.8941 246.388 97.4963 244.745C98.0986 243.101 98.9286 241.693 99.9866 240.521C101.045 239.349 102.249 238.454 103.6 237.835C104.967 237.201 106.399 236.883 107.897 236.883C109.573 236.883 111.062 237.184 112.365 237.786C113.667 238.372 114.757 239.211 115.636 240.301C116.531 241.375 117.207 242.653 117.662 244.134C118.118 245.599 118.346 247.218 118.346 248.993V250.775H98.3508V248.285H115.441V247.943C115.408 246.462 115.107 245.078 114.537 243.792C113.984 242.49 113.154 241.432 112.047 240.619C110.94 239.805 109.557 239.398 107.897 239.398C106.66 239.398 105.52 239.658 104.479 240.179C103.453 240.7 102.566 241.449 101.818 242.425C101.085 243.385 100.516 244.533 100.109 245.868C99.718 247.186 99.5227 248.651 99.5227 250.262V251.312C99.5227 252.777 99.7343 254.144 100.157 255.413C100.597 256.667 101.215 257.773 102.013 258.734C102.827 259.694 103.787 260.443 104.894 260.98C106.001 261.517 107.221 261.786 108.556 261.786C110.118 261.786 111.502 261.501 112.706 260.931C113.911 260.345 114.993 259.425 115.953 258.172L117.784 259.588C117.215 260.435 116.499 261.216 115.636 261.932C114.79 262.648 113.772 263.218 112.584 263.641C111.396 264.064 110.013 264.276 108.434 264.276ZM127.013 241.742V263.787H124.108V237.371H126.94L127.013 241.742ZM136.364 237.176L136.29 239.862C135.965 239.813 135.647 239.772 135.338 239.74C135.029 239.707 134.695 239.691 134.337 239.691C133.068 239.691 131.953 239.927 130.992 240.399C130.048 240.855 129.251 241.497 128.6 242.328C127.949 243.141 127.452 244.102 127.111 245.208C126.769 246.299 126.573 247.471 126.525 248.724L125.45 249.139C125.45 247.414 125.629 245.811 125.988 244.329C126.346 242.848 126.891 241.554 127.623 240.448C128.372 239.325 129.308 238.454 130.431 237.835C131.57 237.201 132.905 236.883 134.435 236.883C134.809 236.883 135.175 236.916 135.533 236.981C135.908 237.03 136.184 237.095 136.364 237.176ZM150.67 264.276C148.945 264.276 147.358 263.958 145.909 263.324C144.477 262.689 143.224 261.794 142.15 260.638C141.092 259.482 140.27 258.115 139.684 256.536C139.114 254.941 138.829 253.2 138.829 251.312V250.262C138.829 248.228 139.13 246.388 139.733 244.745C140.335 243.101 141.165 241.693 142.223 240.521C143.281 239.349 144.485 238.454 145.836 237.835C147.203 237.201 148.636 236.883 150.133 236.883C151.809 236.883 153.299 237.184 154.601 237.786C155.903 238.372 156.993 239.211 157.872 240.301C158.767 241.375 159.443 242.653 159.899 244.134C160.354 245.599 160.582 247.218 160.582 248.993V250.775H140.587V248.285H157.677V247.943C157.644 246.462 157.343 245.078 156.774 243.792C156.22 242.49 155.39 241.432 154.283 240.619C153.177 239.805 151.793 239.398 150.133 239.398C148.896 239.398 147.757 239.658 146.715 240.179C145.69 240.7 144.803 241.449 144.054 242.425C143.322 243.385 142.752 244.533 142.345 245.868C141.954 247.186 141.759 248.651 141.759 250.262V251.312C141.759 252.777 141.971 254.144 142.394 255.413C142.833 256.667 143.452 257.773 144.249 258.734C145.063 259.694 146.023 260.443 147.13 260.98C148.237 261.517 149.458 261.786 150.792 261.786C152.355 261.786 153.738 261.501 154.943 260.931C156.147 260.345 157.229 259.425 158.19 258.172L160.021 259.588C159.451 260.435 158.735 261.216 157.872 261.932C157.026 262.648 156.009 263.218 154.821 263.641C153.632 264.064 152.249 264.276 150.67 264.276ZM183.507 258.661V226.287H186.437V263.787H183.702L183.507 258.661ZM165.172 250.848V250.335C165.172 248.285 165.408 246.437 165.88 244.793C166.352 243.133 167.028 241.717 167.906 240.545C168.802 239.357 169.876 238.454 171.129 237.835C172.382 237.201 173.798 236.883 175.377 236.883C176.923 236.883 178.291 237.135 179.479 237.64C180.667 238.145 181.684 238.869 182.531 239.813C183.393 240.757 184.085 241.88 184.606 243.182C185.143 244.484 185.533 245.933 185.778 247.528V254.046C185.582 255.544 185.224 256.919 184.703 258.172C184.183 259.409 183.491 260.492 182.628 261.419C181.766 262.331 180.724 263.039 179.503 263.543C178.299 264.032 176.907 264.276 175.328 264.276C173.766 264.276 172.358 263.95 171.105 263.299C169.851 262.648 168.785 261.729 167.906 260.54C167.028 259.336 166.352 257.912 165.88 256.268C165.408 254.624 165.172 252.817 165.172 250.848ZM168.102 250.335V250.848C168.102 252.394 168.256 253.827 168.566 255.145C168.875 256.463 169.347 257.611 169.982 258.587C170.616 259.564 171.422 260.329 172.399 260.882C173.375 261.436 174.531 261.712 175.865 261.712C177.542 261.712 178.95 261.395 180.089 260.76C181.228 260.109 182.14 259.255 182.823 258.197C183.507 257.122 184.003 255.951 184.313 254.681V247.088C184.117 246.226 183.833 245.347 183.458 244.452C183.084 243.556 182.571 242.734 181.92 241.986C181.285 241.221 180.472 240.61 179.479 240.155C178.502 239.683 177.314 239.447 175.914 239.447C174.563 239.447 173.4 239.723 172.423 240.277C171.447 240.83 170.633 241.603 169.982 242.596C169.347 243.573 168.875 244.72 168.566 246.038C168.256 247.357 168.102 248.789 168.102 250.335ZM206.285 226.287H209.215V258.661L209.02 263.787H206.285V226.287ZM227.599 250.335V250.848C227.599 252.817 227.371 254.624 226.915 256.268C226.46 257.912 225.8 259.336 224.938 260.54C224.075 261.729 223.017 262.648 221.764 263.299C220.527 263.95 219.103 264.276 217.491 264.276C215.913 264.276 214.513 264.032 213.292 263.543C212.072 263.039 211.03 262.331 210.167 261.419C209.305 260.492 208.613 259.409 208.092 258.172C207.571 256.919 207.205 255.544 206.993 254.046V247.528C207.238 245.933 207.628 244.484 208.165 243.182C208.702 241.88 209.394 240.757 210.24 239.813C211.103 238.869 212.128 238.145 213.317 237.64C214.521 237.135 215.896 236.883 217.443 236.883C219.054 236.883 220.486 237.201 221.74 237.835C223.009 238.454 224.075 239.357 224.938 240.545C225.8 241.717 226.46 243.133 226.915 244.793C227.371 246.437 227.599 248.285 227.599 250.335ZM224.645 250.848V250.335C224.645 248.789 224.498 247.357 224.205 246.038C223.912 244.72 223.448 243.573 222.814 242.596C222.195 241.603 221.398 240.83 220.421 240.277C219.445 239.723 218.273 239.447 216.906 239.447C215.506 239.447 214.309 239.683 213.317 240.155C212.34 240.61 211.526 241.221 210.875 241.986C210.24 242.734 209.736 243.556 209.362 244.452C208.987 245.347 208.711 246.226 208.531 247.088V254.681C208.808 255.902 209.288 257.049 209.972 258.123C210.656 259.198 211.575 260.068 212.731 260.736C213.886 261.387 215.294 261.712 216.954 261.712C218.289 261.712 219.436 261.436 220.397 260.882C221.373 260.329 222.171 259.564 222.789 258.587C223.424 257.611 223.888 256.463 224.181 255.145C224.49 253.827 224.645 252.394 224.645 250.848ZM241.613 261.151L249.84 237.371H252.99L241.808 268.036C241.58 268.638 241.287 269.305 240.929 270.037C240.587 270.77 240.131 271.47 239.562 272.137C239.008 272.821 238.309 273.374 237.462 273.797C236.632 274.237 235.615 274.456 234.41 274.456C234.101 274.456 233.702 274.416 233.214 274.334C232.742 274.269 232.4 274.204 232.189 274.139L232.164 271.673C232.343 271.722 232.604 271.763 232.946 271.795C233.287 271.828 233.523 271.844 233.654 271.844C234.712 271.844 235.599 271.665 236.315 271.307C237.047 270.949 237.657 270.412 238.146 269.696C238.634 268.996 239.065 268.117 239.44 267.059L241.613 261.151ZM233.922 237.371L242.345 260.052L243.126 263.104L241.002 264.3L230.748 237.371H233.922Z" fill="black"/>
</svg>
