<svg width="45" height="47" viewBox="0 0 45 47" fill="none" xmlns="http://www.w3.org/2000/svg">
<path d="M42.0165 45.4551L38.5963 11.4377C38.5246 10.7255 37.9499 10.1848 37.2642 10.1848H30.8359V8.65399C30.8359 3.88235 27.1187 0 22.5501 0C17.9812 0 14.2641 3.88235 14.2641 8.65399V10.1848H7.83571C7.15009 10.1848 6.57537 10.7255 6.50362 11.4377L3.08344 45.4551C3.04396 45.8492 3.16653 46.2426 3.42024 46.5373C3.6743 46.8317 4.03616 46.9999 4.41553 46.9999H40.6841C41.0638 46.9999 41.4257 46.8317 41.6794 46.5373C41.9338 46.2426 42.056 45.8492 42.0165 45.4551ZM16.9427 8.65399C16.9427 5.42497 19.4582 2.79765 22.5501 2.79765C25.6418 2.79765 28.1573 5.42497 28.1573 8.65399V10.1848H16.9427V8.65399ZM5.9028 44.2023L9.0418 12.9824H14.2641V16.0651C14.2641 16.8375 14.8639 17.464 15.6034 17.464C16.3429 17.464 16.9427 16.8375 16.9427 16.0651V12.9824H28.1573V16.0651C28.1573 16.8375 28.7571 17.464 29.4966 17.464C30.2361 17.464 30.8359 16.8375 30.8359 16.0651V12.9824H36.0582L39.1971 44.2023H5.9028Z" fill="white"/>
</svg>
