<?xml version="1.0" encoding="UTF-8"?>
<svg id="Vrstva_1" data-name="Vrstva 1" xmlns="http://www.w3.org/2000/svg" viewBox="0 0 122.24 140.03">
  <defs>
    <style>
      .cls-1 {
        fill: #fff;
      }

      .cls-1, .cls-2 {
        fill-rule: evenodd;
      }
    </style>
  </defs>
  <polygon class="cls-2" points="28.41 99.39 37.31 99.78 37.31 88.77 0 88.77 0 67.91 37.31 67.91 37.31 59.96 0 59.96 0 0 122.24 0 122.24 59.96 84.93 59.96 84.93 67.91 122.24 67.91 122.24 88.77 84.93 88.77 84.93 99.78 93.82 99.39 93.82 140.03 28.41 140.03 28.41 99.39 28.41 99.39"/>
  <path class="cls-1" d="m9.92,83.2h4.26c.78,0,1.16-.1,1.55-.38.45-.34.65-.81.65-1.61v-1.88c0-1.32-.65-1.89-2.16-1.89h-1.88v-1.73h1.48v.8h2.28v-2.79h-4.16c-1.57,0-2.12.57-2.12,2.26v1.21c0,1.56.57,2.14,2.11,2.14h1.89v1.88h-1.48v-.93h-2.42v2.91h0Zm12.27,0h3.88v-2.02l-.65.03v-5.51h.97v1.49h1.82v-3.49h-8.15v3.49h1.82v-1.49h.98v5.51l-.66-.03v2.02h0Zm9.89,0h3.23v-3.84h1.49v2.7c0,.92.21,1.13,1.15,1.13h2.06v-2.02l-.65.03v-.77c0-.81-.05-1.02-.26-1.34-.23-.34-.5-.51-1.01-.65.98-.4,1.27-.81,1.27-1.79v-.95c0-1.39-.64-1.99-2.11-1.99h-5.18v2.02l.67-.03v5.51l-.67-.03v2.02h0Zm3.23-5.59v-1.9h1.49v1.9h-1.49Zm1.37-4.74l1.11-2.13h-1.25l-.57,1.11-.55-1.11h-1.24l1.04,2.13h1.47Zm7.11,10.33h6.93v-3.2h-2.26v1.21h-1.43v-1.99h1.97v-1.71h-1.97v-1.81h1.43v1.04h2.16v-3.03h-6.83v2.02l.66-.03v5.51l-.66-.03v2.02h0Zm10.7,0h4.26c.78,0,1.16-.1,1.55-.38.46-.34.65-.81.65-1.61v-1.88c0-1.32-.65-1.89-2.16-1.89h-1.88v-1.73h1.48v.8h2.28v-2.79h-4.16c-1.57,0-2.12.57-2.12,2.26v1.21c0,1.56.57,2.14,2.1,2.14h1.89v1.88h-1.48v-.93h-2.42v2.91h0Zm4.07-10.33l1.11-2.13h-1.25l-.57,1.11-.55-1.11h-1.24l1.04,2.13h1.47Zm8.49.84c-.78,0-1.35.23-1.72.67-.31.37-.43.81-.43,1.65v4.85c0,.84.11,1.28.43,1.65.37.44.94.67,1.72.67h2.26c.78,0,1.36-.22,1.72-.67.31-.37.43-.81.43-1.65v-4.85c0-.84-.11-1.28-.43-1.65-.37-.44-.94-.67-1.72-.67h-2.26Zm1.85,7.5h-1.44v-5.51h1.44v5.51h0Zm8.71,1.99h3.64l1.63-7.49.67.03v-2.02h-3.84v2.02l.67-.03-.91,4.82-1.17-6.81h-2.89v2.02l.67-.03,1.52,7.49h0Zm9.73,0h3.81v-2.02l-.58.03v-5.51l.58.03v-2.02h-3.81v2.02l.67-.03v5.51l-.67-.03v2.02h0Zm14.2-3.5h-2.29v1.51h-1.51v-5.51h1.51v1.04h2.21v-3.03h-4.13c-.73,0-1.22.16-1.6.5-.41.37-.56.84-.56,1.78v5.22c0,.72.14,1.15.5,1.5.39.37.84.49,1.65.49h4.21v-3.5h0Zm3.96,3.5h6.93v-3.2h-2.27v1.21h-1.43v-1.99h1.98v-1.71h-1.98v-1.81h1.43v1.04h2.17v-3.03h-6.83v2.02l.67-.03v5.51l-.67-.03v2.02h0Zm-70.31,49.92v-26.97l8.73.38v-17.98h34.41v17.98l8.74-.38v26.97h-51.89Zm8.73-65.44v-34.64h-12.91v19.94H6.69V6.47h108.85v46.52h-24.3v-19.94h-12.92v34.64h-34.41Z"/>
</svg>