<svg width="20" height="18" viewBox="0 0 20 18" fill="none" xmlns="http://www.w3.org/2000/svg">
<path d="M13 1L19 3V8H16V16C16 16.2652 15.8946 16.5196 15.7071 16.7071C15.5196 16.8946 15.2652 17 15 17H5C4.73478 17 4.48043 16.8946 4.29289 16.7071C4.10536 16.5196 4 16.2652 4 16V8H1V3L7 1C7 1.79565 7.31607 2.55871 7.87868 3.12132C8.44129 3.68393 9.20435 4 10 4C10.7956 4 11.5587 3.68393 12.1213 3.12132C12.6839 2.55871 13 1.79565 13 1Z" stroke="#2A313F" stroke-width="2" stroke-linecap="round" stroke-linejoin="round"/>
<path d="M8.5 8H11L9.5 13" stroke="#2A313F" stroke-width="2" stroke-linecap="round" stroke-linejoin="round"/>
</svg>
