<svg width="390" height="523" viewBox="0 0 390 523" fill="none" xmlns="http://www.w3.org/2000/svg">
<path d="M190.554 392.466V433.367H215.191V485.104H190.554V522.06H128.962V485.104H101.861V433.367H128.962V392.904C57.5158 379.008 1.88364 315.14 1.88364 238.636C1.88364 152.008 72.5664 81.5305 159.194 81.5305C245.824 81.5305 315.994 152.006 315.994 238.636C315.994 314.313 262.001 377.654 190.554 392.466ZM159.401 143.124C106.735 143.124 63.8869 185.973 63.8869 238.639C63.8869 291.307 106.735 334.155 159.401 334.155C212.069 334.155 254.917 291.307 254.917 238.639C254.914 185.97 212.069 143.124 159.401 143.124Z" fill="black"/>
<path d="M46.367 126.029C-14.629 187.542 -14.3549 287.067 47.1604 348.064C108.675 409.062 208.564 408.858 269.56 347.344C323.453 292.993 328.791 208.303 287.81 148.161L336.365 99.1949L338.44 125.737L389.829 121.047L380.044 10.9183L268.215 0.0595703L263.502 51.8287L293.47 54.9753L243.729 105.138C182.543 65.3776 99.6236 72.3198 46.367 126.029ZM225.461 303.616C188.378 341.013 127.782 341.269 90.3827 304.185C52.9836 267.1 52.7275 206.505 89.8109 169.106C126.895 131.708 187.491 131.452 224.89 168.537C262.289 205.621 262.545 266.217 225.461 303.616Z" fill="black"/>
</svg>
