<svg width="412" height="578" viewBox="0 0 412 578" fill="none" xmlns="http://www.w3.org/2000/svg">
<path d="M247.678 407.569V461.053H279.895V528.706H247.678V577.03H167.139V528.706H131.702V461.053H167.139V408.142C73.7133 389.972 0.966797 306.456 0.966797 206.416C0.966797 93.1388 93.3939 0.979492 206.671 0.979492C319.951 0.979492 411.709 93.1358 411.709 206.416C411.709 305.374 341.105 388.2 247.678 407.569ZM206.942 81.5217C138.075 81.5217 82.0443 137.551 82.0443 206.419C82.0443 275.29 138.075 331.32 206.942 331.32C275.813 331.32 331.843 275.29 331.843 206.419C331.839 137.548 275.813 81.5217 206.942 81.5217Z" fill="black"/>
</svg>
