<svg width="12" height="8" viewBox="0 0 12 8" fill="none" xmlns="http://www.w3.org/2000/svg">
<path d="M5.81719 7.0666C5.68385 7.0666 5.55485 7.0416 5.43019 6.9916C5.30485 6.9416 5.20052 6.87493 5.11719 6.7916L0.517187 2.1916C0.333854 2.00827 0.242188 1.77493 0.242188 1.4916C0.242188 1.20827 0.333854 0.974935 0.517187 0.791601C0.70052 0.608268 0.933854 0.516602 1.21719 0.516602C1.50052 0.516602 1.73385 0.608268 1.91719 0.791601L5.81719 4.6916L9.71719 0.791601C9.90052 0.608268 10.1339 0.516602 10.4172 0.516602C10.7005 0.516602 10.9339 0.608268 11.1172 0.791601C11.3005 0.974935 11.3922 1.20827 11.3922 1.4916C11.3922 1.77493 11.3005 2.00827 11.1172 2.1916L6.51719 6.7916C6.41719 6.8916 6.30885 6.96227 6.19219 7.0036C6.07552 7.0456 5.95052 7.0666 5.81719 7.0666Z" fill="black"/>
</svg>
