<svg width="44" height="44" viewBox="0 0 44 44" fill="none" xmlns="http://www.w3.org/2000/svg">
<g clip-path="url(#clip0_20_175)">
<path d="M22 42C24.627 42.0034 27.2287 41.4876 29.6556 40.4823C32.0826 39.477 34.2869 38.002 36.142 36.142C38.002 34.2869 39.477 32.0826 40.4823 29.6556C41.4876 27.2287 42.0034 24.627 42 22C42.0034 19.3731 41.4876 16.7714 40.4823 14.3444C39.4769 11.9175 38.0019 9.71312 36.142 7.85802C34.2869 5.99804 32.0826 4.52302 29.6556 3.5177C27.2287 2.51239 24.627 1.99661 22 2.00002C19.3731 1.99667 16.7714 2.51247 14.3444 3.51778C11.9175 4.52309 9.71312 5.99809 7.85802 7.85802C5.99809 9.71312 4.52309 11.9175 3.51778 14.3444C2.51247 16.7714 1.99667 19.3731 2.00002 22C1.99661 24.627 2.51239 27.2287 3.5177 29.6556C4.52302 32.0826 5.99804 34.2869 7.85802 36.142C9.71312 38.0019 11.9175 39.4769 14.3444 40.4823C16.7714 41.4876 19.3731 42.0034 22 42Z" stroke="#A3A3A3" stroke-width="4" stroke-linejoin="round"/>
<path fill-rule="evenodd" clip-rule="evenodd" d="M22 9C22.663 9 23.2989 9.26339 23.7678 9.73223C24.2366 10.2011 24.5 10.837 24.5 11.5C24.5 12.163 24.2366 12.7989 23.7678 13.2678C23.2989 13.7366 22.663 14 22 14C21.337 14 20.7011 13.7366 20.2322 13.2678C19.7634 12.7989 19.5 12.163 19.5 11.5C19.5 10.837 19.7634 10.2011 20.2322 9.73223C20.7011 9.26339 21.337 9 22 9Z" fill="#A3A3A3"/>
<path d="M22.5 32V18H20.5M19 32H26" stroke="#A3A3A3" stroke-width="4" stroke-linecap="round" stroke-linejoin="round"/>
</g>
<defs>
<clipPath id="clip0_20_175">
<rect width="44" height="44" fill="white"/>
</clipPath>
</defs>
</svg>
