<?xml version="1.0" encoding="utf-8"?>
<!-- Generator: Adobe Illustrator 27.4.1, SVG Export Plug-In . SVG Version: 6.00 Build 0)  -->
<svg version="1.1" id="Vrstva_1" xmlns="http://www.w3.org/2000/svg" xmlns:xlink="http://www.w3.org/1999/xlink" x="0px" y="0px"
	 viewBox="0 0 283.84 127.13" style="enable-background:new 0 0 283.84 127.13;" xml:space="preserve">
<style type="text/css">
	.st0{fill:#020203;stroke:#1E1E1C;stroke-width:0.75;}
	.st1{fill:#1E1E1C;}
</style>
<g>
	<g>
		<path class="st0" d="M95.17,72.38h6.68l7.21-15.49h6.95v2.94l-8.55,15.49l9.08,16.03v2.94h-6.95l-7.75-16.03h-6.68v16.03h-6.95
			v-37.4h6.95V72.38z"/>
		<path class="st0" d="M139.25,94.28l-0.8-3.21h-0.53c-0.43,0.71-0.94,1.34-1.55,1.87c-0.57,0.5-1.23,0.93-1.98,1.31
			c-0.75,0.37-1.62,0.56-2.62,0.56h-4.28c-1.14,0-2.18-0.19-3.12-0.56c-0.95-0.38-1.76-0.89-2.46-1.55c-0.69-0.66-1.23-1.42-1.6-2.3
			c-0.37-0.88-0.56-1.81-0.56-2.8v-2.94c0-1,0.19-1.93,0.56-2.8c0.37-0.87,0.91-1.64,1.6-2.3c0.7-0.66,1.51-1.17,2.46-1.55
			c0.95-0.37,1.98-0.56,3.12-0.56h9.62v-1.87c0-1.96-0.98-2.94-2.94-2.94h-12.02v-5.61h13.89c1.14,0,2.18,0.19,3.13,0.56
			c0.95,0.37,1.76,0.89,2.46,1.55c0.69,0.66,1.23,1.42,1.6,2.3c0.37,0.87,0.56,1.81,0.56,2.8v20.04H139.25z M134.76,88.75
			c0.53-0.3,0.98-0.65,1.33-1.04c0.39-0.43,0.73-0.91,1.02-1.44v-3.21h-8.01c-0.82,0-1.47,0.24-1.95,0.72
			c-0.48,0.48-0.72,1.13-0.72,1.95v0.8c0,0.82,0.24,1.47,0.72,1.95c0.48,0.48,1.13,0.72,1.95,0.72h3.74
			C133.58,89.21,134.22,89.06,134.76,88.75z"/>
		<path class="st0" d="M162.75,83.86l-7.48-1.33c-0.78-0.14-1.55-0.42-2.3-0.83c-0.75-0.41-1.41-0.93-1.98-1.58
			c-0.57-0.64-1.02-1.37-1.36-2.19c-0.34-0.82-0.51-1.69-0.51-2.62v-1.07c0-1,0.19-1.93,0.56-2.8c0.37-0.87,0.91-1.64,1.6-2.3
			c0.7-0.66,1.51-1.17,2.46-1.55c0.94-0.38,1.98-0.56,3.12-0.56h13.63v4.01l-1.6,1.6h-10.42c-0.82,0-1.47,0.22-1.95,0.67
			c-0.48,0.44-0.72,0.93-0.72,1.47c0,0.78,0.15,1.39,0.45,1.82c0.3,0.43,0.86,0.71,1.68,0.86l7.75,1.33
			c1.6,0.29,2.98,1.04,4.14,2.27c1.16,1.23,1.74,2.79,1.74,4.67v1.34c0,1-0.19,1.94-0.56,2.8c-0.37,0.87-0.91,1.64-1.6,2.3
			c-0.7,0.66-1.51,1.18-2.46,1.55c-0.95,0.37-1.99,0.56-3.13,0.56h-14.96v-5.61h13.62c1.6,0,2.41-0.8,2.41-2.4
			C164.88,84.88,164.17,84.08,162.75,83.86z"/>
		<path class="st0" d="M175.56,67.03h4.01l2.67-7.75h4.01v7.75h6.68v5.61h-6.68V86c0,0.82,0.26,1.47,0.78,1.95
			c0.52,0.48,1.24,0.72,2.16,0.72h5.34v5.61h-7.21c-1.14,0-2.18-0.19-3.13-0.56c-0.94-0.37-1.76-0.89-2.46-1.55
			c-0.69-0.66-1.23-1.43-1.6-2.3c-0.37-0.87-0.56-1.81-0.56-2.8V72.65h-4.01V67.03z"/>
		<path class="st0" d="M199.89,70.91c0.37-0.87,0.91-1.64,1.6-2.3c0.69-0.66,1.51-1.18,2.46-1.55c0.94-0.37,1.99-0.56,3.13-0.56
			h9.08c1.14,0,2.18,0.19,3.13,0.56c0.94,0.37,1.76,0.89,2.46,1.55c0.7,0.66,1.23,1.43,1.6,2.3c0.37,0.87,0.56,1.81,0.56,2.81v13.89
			c0,1-0.19,1.93-0.56,2.8c-0.37,0.87-0.91,1.64-1.6,2.3c-0.7,0.66-1.52,1.17-2.46,1.55c-0.95,0.37-1.99,0.56-3.13,0.56h-9.08
			c-1.14,0-2.18-0.19-3.13-0.56c-0.94-0.38-1.76-0.89-2.46-1.55c-0.7-0.66-1.23-1.42-1.6-2.3c-0.37-0.88-0.56-1.81-0.56-2.8V73.71
			C199.33,72.72,199.52,71.78,199.89,70.91z M217.23,74.78c0-0.82-0.26-1.47-0.78-1.95c-0.52-0.48-1.24-0.72-2.16-0.72h-5.34
			c-0.93,0-1.65,0.24-2.16,0.72c-0.52,0.48-0.78,1.13-0.78,1.95v11.75c0,0.82,0.26,1.47,0.78,1.95c0.52,0.48,1.24,0.72,2.16,0.72
			h5.34c0.92,0,1.65-0.24,2.16-0.72c0.52-0.48,0.78-1.13,0.78-1.95V74.78z"/>
		<path class="st0" d="M262.37,66.5c1.14,0,2.18,0.19,3.13,0.56c0.94,0.37,1.76,0.89,2.46,1.55c0.69,0.66,1.23,1.43,1.6,2.3
			c0.37,0.87,0.56,1.81,0.56,2.81v20.57h-6.68v-19.5c0-0.82-0.26-1.47-0.77-1.95c-0.52-0.48-1.24-0.72-2.16-0.72h-4.27
			c-0.93,0-1.65,0.24-2.16,0.72c-0.52,0.48-0.77,1.13-0.77,1.95v19.5h-6.68v-19.5c0-0.82-0.26-1.47-0.78-1.95
			c-0.52-0.48-1.24-0.72-2.16-0.72h-2.94c-0.75,0-1.39,0.15-1.92,0.45c-0.54,0.3-0.98,0.63-1.34,0.99c-0.39,0.46-0.73,0.96-1.02,1.5
			v19.23h-6.68V67.03h4.54l0.8,3.21h0.54c0.43-0.71,0.94-1.33,1.55-1.87c0.57-0.5,1.23-0.94,1.98-1.31
			c0.75-0.37,1.62-0.56,2.62-0.56h2.67c1.28,0,2.35,0.18,3.21,0.53c0.85,0.36,1.53,0.75,2.03,1.18c0.61,0.53,1.09,1.12,1.45,1.76
			h0.27c0.36-0.64,0.84-1.23,1.44-1.76c0.53-0.46,1.22-0.87,2.06-1.2c0.84-0.34,1.9-0.51,3.18-0.51H262.37z"/>
		<path class="st0" d="M283.46,63.56h-6.68v-7.48h6.68V63.56z M283.46,94.28h-6.68V67.03h6.68V94.28z"/>
	</g>
	<g>
		<path class="st1" d="M5.99,112.96L0,106.79C37.05,71.01,37.05,26.7,37.05,26.33l8.72-0.18C45.77,28.15,45.77,74.82,5.99,112.96z"
			/>
		<circle class="st1" cx="40.32" cy="8.35" r="8.35"/>
		<path class="st1" d="M19.25,69.92c43.22-13.98,72.46-39.23,73.73-40.5l-5.81-6.36c-0.18,0.18-33.78,29.6-81.36,41.77L4,65.2v7.26
			l1.27,0.54c0.36,0.18,41.77,16.16,70.65,54.12l6.9-5.27C61.38,93.71,34.14,77.37,19.25,69.92z"/>
	</g>
</g>
<g>
	<path d="M174.34,21.68c0.51,0,0.97,0.08,1.38,0.24c0.41,0.16,0.76,0.38,1.05,0.66c0.29,0.28,0.52,0.62,0.68,1
		c0.16,0.38,0.25,0.8,0.25,1.24v5.38c0,0.45-0.08,0.86-0.25,1.24c-0.16,0.38-0.39,0.71-0.68,1c-0.29,0.28-0.64,0.5-1.05,0.66
		c-0.41,0.16-0.87,0.24-1.38,0.24h-4.59v3.81h-1.57V21.9h1.01l0.22,1.57h0.11c0.18-0.33,0.41-0.63,0.69-0.9
		c0.24-0.24,0.53-0.45,0.87-0.63c0.34-0.18,0.75-0.27,1.23-0.27H174.34z M172.33,23.02c-0.42,0-0.79,0.1-1.11,0.31
		s-0.59,0.44-0.82,0.69c-0.25,0.3-0.47,0.63-0.65,1.01v6.94h4.59c0.51,0,0.93-0.17,1.28-0.52c0.34-0.34,0.52-0.77,0.52-1.28v-5.38
		c0-0.51-0.17-0.93-0.52-1.28c-0.34-0.34-0.77-0.52-1.28-0.52H172.33z"/>
	<path d="M180.84,24.81c0-0.45,0.08-0.86,0.25-1.24c0.16-0.38,0.39-0.71,0.68-1c0.29-0.28,0.64-0.5,1.05-0.66
		c0.41-0.16,0.87-0.24,1.38-0.24h2.8c0.51,0,0.97,0.08,1.38,0.24c0.41,0.16,0.76,0.38,1.05,0.66s0.52,0.62,0.68,1
		c0.16,0.38,0.25,0.8,0.25,1.24v5.6c0,0.45-0.08,0.86-0.25,1.24s-0.39,0.71-0.68,1s-0.64,0.5-1.05,0.66
		c-0.41,0.16-0.87,0.24-1.38,0.24h-2.8c-1.08,0-1.9-0.3-2.49-0.9c-0.58-0.6-0.87-1.34-0.87-2.24V24.81z M182.41,30.41
		c0,0.51,0.17,0.93,0.52,1.28c0.34,0.34,0.77,0.52,1.28,0.52h2.8c0.51,0,0.93-0.17,1.28-0.52c0.34-0.34,0.51-0.77,0.51-1.28v-5.6
		c0-0.51-0.17-0.93-0.51-1.28c-0.34-0.34-0.77-0.52-1.28-0.52h-2.8c-0.51,0-0.93,0.17-1.28,0.52c-0.34,0.34-0.52,0.77-0.52,1.28
		V30.41z"/>
	<path d="M197.19,33.32h-1.79l-3.02-10.75V21.9h1.57l2.46,9.18h0.11l2.35-7.62h1.9l2.35,7.62h0.11l2.46-9.18h1.57v0.67l-3.02,10.75
		h-1.79l-2.58-7.84h-0.11L197.19,33.32z"/>
	<path d="M212.65,33.32c-1.08,0-1.9-0.3-2.49-0.9c-0.58-0.6-0.87-1.34-0.87-2.24v-5.38c0-0.45,0.08-0.86,0.25-1.24
		c0.16-0.38,0.39-0.71,0.68-1c0.29-0.28,0.64-0.5,1.05-0.66c0.41-0.16,0.87-0.24,1.38-0.24h2.46c0.51,0,0.97,0.08,1.38,0.24
		c0.41,0.16,0.76,0.38,1.05,0.66s0.52,0.62,0.68,1c0.16,0.38,0.25,0.8,0.25,1.24v3.47h-7.62v1.9c0,0.51,0.17,0.93,0.52,1.28
		c0.34,0.34,0.77,0.52,1.28,0.52h5.38v1.34H212.65z M210.86,26.94h6.05v-2.13c0-0.51-0.17-0.93-0.51-1.28
		c-0.34-0.34-0.77-0.52-1.28-0.52h-2.46c-0.51,0-0.93,0.17-1.28,0.52c-0.34,0.34-0.52,0.77-0.52,1.28V26.94z"/>
	<path d="M228.11,23.13h-2.13c-0.42,0-0.79,0.1-1.11,0.29c-0.32,0.19-0.59,0.41-0.82,0.65c-0.25,0.28-0.47,0.6-0.65,0.96v8.29h-1.57
		V21.9h1.01l0.22,1.57h0.11c0.18-0.33,0.41-0.63,0.69-0.9c0.24-0.24,0.53-0.45,0.87-0.63c0.34-0.18,0.75-0.27,1.23-0.27h2.13V23.13z
		"/>
	<path d="M233.26,33.32c-1.08,0-1.9-0.3-2.49-0.9c-0.58-0.6-0.87-1.34-0.87-2.24v-5.38c0-0.45,0.08-0.86,0.25-1.24
		c0.16-0.38,0.39-0.71,0.68-1c0.29-0.28,0.64-0.5,1.05-0.66c0.41-0.16,0.87-0.24,1.38-0.24h2.46c0.51,0,0.97,0.08,1.38,0.24
		c0.41,0.16,0.76,0.38,1.05,0.66s0.52,0.62,0.68,1c0.16,0.38,0.25,0.8,0.25,1.24v3.47h-7.62v1.9c0,0.51,0.17,0.93,0.52,1.28
		c0.34,0.34,0.77,0.52,1.28,0.52h5.38v1.34H233.26z M231.47,26.94h6.05v-2.13c0-0.51-0.17-0.93-0.51-1.28
		c-0.34-0.34-0.77-0.52-1.28-0.52h-2.46c-0.51,0-0.93,0.17-1.28,0.52c-0.34,0.34-0.52,0.77-0.52,1.28V26.94z"/>
	<path d="M245.58,33.55c-0.51,0-0.97-0.08-1.38-0.24c-0.41-0.16-0.76-0.38-1.05-0.66c-0.29-0.28-0.52-0.62-0.68-1
		s-0.25-0.79-0.25-1.24v-5.38c0-0.45,0.08-0.86,0.25-1.24s0.39-0.71,0.68-1c0.29-0.28,0.64-0.5,1.05-0.66
		c0.41-0.16,0.87-0.23,1.38-0.23h4.59v-4.26h1.57v15.68h-1.01l-0.22-1.57h-0.11c-0.18,0.33-0.41,0.63-0.69,0.9
		c-0.24,0.24-0.53,0.45-0.87,0.63s-0.75,0.27-1.23,0.27H245.58z M247.59,32.2c0.42,0,0.79-0.1,1.11-0.31s0.59-0.44,0.82-0.69
		c0.25-0.3,0.47-0.63,0.65-1.01v-6.94h-4.59c-0.51,0-0.93,0.17-1.28,0.52c-0.34,0.34-0.52,0.77-0.52,1.28v5.38
		c0,0.51,0.17,0.93,0.52,1.28c0.34,0.34,0.77,0.52,1.28,0.52H247.59z"/>
	<path d="M262.27,21.9h4.59c0.51,0,0.97,0.08,1.38,0.23c0.41,0.16,0.76,0.38,1.05,0.66c0.29,0.28,0.52,0.62,0.68,1
		s0.25,0.8,0.25,1.24v5.15c0,0.45-0.08,0.86-0.25,1.24c-0.16,0.38-0.39,0.71-0.68,1c-0.29,0.28-0.64,0.5-1.05,0.66
		c-0.41,0.16-0.87,0.24-1.38,0.24h-6.16V17.64h1.57V21.9z M262.27,23.24v8.74h4.59c0.51,0,0.93-0.17,1.28-0.52
		c0.34-0.34,0.52-0.77,0.52-1.28v-5.15c0-0.51-0.17-0.93-0.52-1.28c-0.34-0.34-0.77-0.52-1.28-0.52H262.27z"/>
	<path d="M278.17,33.32c-0.51,1.34-1.07,2.31-1.69,2.91c-0.62,0.6-1.44,0.9-2.45,0.9h-0.56v-1.34h0.56c1.09,0,1.91-0.82,2.46-2.46
		l-4.26-10.75V21.9h1.57l3.47,9.63h0.11l3.25-9.63h1.57v0.67L278.17,33.32z"/>
</g>
</svg>
